<svg id="Layer_1" data-name="Layer 1" xmlns="http://www.w3.org/2000/svg" xmlns:xlink="http://www.w3.org/1999/xlink" viewBox="0 0 119.976 49.091"><a xlink:href="27.178"><path id="fullLogo" d="M36.458 2.77L37.946.1 15.537 0a5.277 5.277 0 0 0-4.633 2.71L0 22.29l22.406.1a5.277 5.277 0 0 0 4.634-2.71l1.485-2.668-19.348-.089L15.585 5.41l16.24.07a5.276 5.276 0 0 0 4.633-2.708z" fill="#c5d800"/></a><a xlink:href="27.178"><path id="fullLogo-2" data-name="fullLogo" d="M28.47 29.93l-1.575-2.692a5.277 5.277 0 0 0-4.543-2.613L.279 24.579l4.269 7.3-.002.001 1.016 1.73H5.56l1.572 2.688a5.276 5.276 0 0 0 4.545 2.613l15.974.03 1.337 2.288-18.995-.039 1.575 2.692a5.277 5.277 0 0 0 4.546 2.613l22.063.034-6.004-10.266a5.277 5.277 0 0 0-4.545-2.613l-15.978-.03-2.18-3.725 19 .036z" fill="#c5d800"/></a><a xlink:href="27.178"><path id="fullLogo-3" data-name="fullLogo" d="M42.907 6.7l-3.103-5.307-9.36 16.53a10.924 10.924 0 0 0 .076 10.897l9.642 16.488 3.02-5.332-2.353-4.024a5.277 5.277 0 0 1-.036-5.264l6.446-11.38a5.277 5.277 0 0 0-.036-5.264l-1.57-2.685-9.44 16.667-1.191-2.039a5.277 5.277 0 0 1-.037-5.264L42.907 6.7z" fill="#c5d800"/></a><path id="fullLogo-4" data-name="fullLogo" d="M66.983 13.346a5.38 5.38 0 0 1-1.02.635c-.37.176-.776.31-1.215.402-.44.09-.932.136-1.48.136-.825 0-1.591-.15-2.3-.45-.706-.3-1.317-.71-1.832-1.23s-.917-1.134-1.205-1.841a5.93 5.93 0 0 1-.435-2.267v-.033a5.865 5.865 0 0 1 1.64-4.109 5.586 5.586 0 0 1 1.85-1.253c.717-.306 1.511-.46 2.38-.46a7.45 7.45 0 0 1 1.438.13c.434.085.828.203 1.183.353.352.151.68.332.98.547s.58.45.836.708L66.227 6.43a5.922 5.922 0 0 0-1.343-.933 3.416 3.416 0 0 0-1.535-.337 3.116 3.116 0 0 0-2.347 1.029 3.52 3.52 0 0 0-.675 1.117c-.16.424-.243.876-.243 1.359v.032c0 .483.082.938.243 1.367.16.428.382.804.666 1.126a3.093 3.093 0 0 0 2.355 1.045c.644 0 1.189-.118 1.634-.355a6.29 6.29 0 0 0 1.326-.964l1.575 1.592c-.29.311-.59.59-.9.836z" fill="#161616"/><path id="fullLogo-5" data-name="fullLogo" d="M77.153 10.563c-.005.086-.012.188-.023.306h-5.998c.117.557.361.979.731 1.262.37.285.829.426 1.375.426.408 0 .773-.069 1.094-.209s.654-.364.996-.675l1.4 1.238c-.407.504-.9.898-1.48 1.182-.58.284-1.26.426-2.042.426a4.93 4.93 0 0 1-1.793-.321 4.147 4.147 0 0 1-2.371-2.324 4.665 4.665 0 0 1-.339-1.809v-.032c0-.612.105-1.19.314-1.737s.501-1.023.876-1.43.824-.73 1.344-.965a4.127 4.127 0 0 1 1.729-.355c.717 0 1.34.13 1.865.386.525.257.962.604 1.31 1.037.348.435.606.933.772 1.496.165.563.25 1.15.25 1.76v.033c0 .118-.004.22-.01.306zm-2.95-2.549c-.31-.337-.724-.506-1.237-.506-.515 0-.932.166-1.248.498s-.522.778-.618 1.335h3.682c-.075-.547-.269-.988-.58-1.327z" fill="#161616"/><path id="fullLogo-6" data-name="fullLogo" d="M83.947 14.326V9.53c0-.577-.129-1.013-.385-1.307s-.621-.442-1.094-.442c-.471 0-.845.148-1.117.442-.274.294-.41.73-.41 1.307v4.796h-2.444v-8.62h2.444V6.94c.14-.184.292-.36.457-.527.168-.167.353-.315.555-.445.204-.13.43-.232.675-.308.248-.075.525-.114.838-.114.931 0 1.652.285 2.162.853s.764 1.35.764 2.347v5.58h-2.445z" fill="#161616"/><path id="fullLogo-7" data-name="fullLogo" d="M92.02 14.334c-.312.09-.671.137-1.078.137-.375 0-.715-.04-1.02-.12a1.828 1.828 0 0 1-.789-.427 2.05 2.05 0 0 1-.515-.796c-.122-.327-.185-.742-.185-1.246V7.798h-1.027V5.707h1.027V3.504h2.445v2.203h2.026v2.091h-2.026v3.682c0 .558.263.836.788.836.428 0 .831-.102 1.206-.305v1.961c-.258.151-.54.271-.851.362z" fill="#161616"/><path id="fullLogo-8" data-name="fullLogo" d="M99.288 8.103c-.815 0-1.455.247-1.921.74-.468.493-.7 1.26-.7 2.299v3.184h-2.445v-8.62h2.445v1.738c.246-.59.585-1.061 1.012-1.415.43-.354 1.008-.515 1.738-.483v2.557h-.13z" fill="#161616"/><path id="fullLogo-9" data-name="fullLogo" d="M105.511 14.326v-.932c-.3.332-.66.597-1.078.795-.417.2-.926.298-1.527.298-.408 0-.79-.056-1.15-.169s-.673-.282-.94-.507c-.269-.225-.48-.5-.635-.828s-.234-.704-.234-1.134v-.031c0-.472.086-.88.257-1.222.173-.343.41-.627.717-.852.305-.226.668-.395 1.092-.507s.893-.169 1.408-.169c.44 0 .822.033 1.15.096.326.065.646.151.956.258v-.145c0-.514-.155-.906-.466-1.174-.312-.267-.773-.402-1.383-.402-.472 0-.887.04-1.246.12s-.738.197-1.134.347l-.611-1.866c.471-.203.965-.37 1.48-.498s1.135-.193 1.865-.193c1.34 0 2.315.327 2.926.98.61.655.918 1.566.918 2.735v5h-2.365zm.047-3.473a3.72 3.72 0 0 0-.715-.234 3.874 3.874 0 0 0-.844-.088c-.526 0-.937.102-1.237.306-.3.204-.45.499-.45.884v.033c0 .332.121.59.37.772.245.182.566.273.964.273.578 0 1.042-.14 1.39-.418.348-.28.522-.644.522-1.094v-.434z" fill="#161616"/><path id="fullLogo-10" data-name="fullLogo" d="M109.612 14.326V3.483h2.444v10.843h-2.444z" fill="#161616"/><path id="fullLogo-11" data-name="fullLogo" d="M65.828 28.565a3.051 3.051 0 0 1-.848 1.093c-.362.295-.794.52-1.297.676-.5.155-1.057.233-1.67.233a7.463 7.463 0 0 1-2.524-.443 6.671 6.671 0 0 1-2.251-1.358l1.464-1.753c.515.418 1.041.75 1.584.998.541.246 1.133.37 1.776.37.515 0 .915-.095 1.2-.282a.888.888 0 0 0 .425-.78v-.032c0-.161-.03-.303-.09-.426s-.172-.24-.338-.346a3.646 3.646 0 0 0-.692-.321c-.297-.108-.68-.22-1.154-.338-.57-.14-1.085-.295-1.547-.467a4.352 4.352 0 0 1-1.178-.635 2.547 2.547 0 0 1-.749-.94c-.178-.375-.267-.842-.267-1.4v-.032c0-.514.096-.978.288-1.39s.461-.77.806-1.07c.348-.3.761-.53 1.241-.691a4.964 4.964 0 0 1 1.59-.242c.825 0 1.584.124 2.275.37.69.247 1.326.601 1.905 1.062l-1.286 1.865a8.24 8.24 0 0 0-1.48-.812 3.791 3.791 0 0 0-1.448-.298c-.481 0-.842.095-1.085.282-.24.188-.361.42-.361.699v.032c0 .183.035.34.105.475s.195.255.378.362.433.208.75.305.717.21 1.2.338c.571.15 1.08.32 1.524.507a4.23 4.23 0 0 1 1.129.675c.307.263.537.57.694.925.156.353.234.777.234 1.27v.032c0 .558-.101 1.053-.303 1.487z" fill="#161616"/><path id="fullLogo-12" data-name="fullLogo" d="M71.533 30.414c-.31.09-.67.137-1.076.137-.377 0-.717-.04-1.023-.12a1.821 1.821 0 0 1-.787-.427 2.03 2.03 0 0 1-.514-.796c-.124-.327-.185-.742-.185-1.246v-4.084h-1.03v-2.091h1.03v-2.203h2.444v2.203h2.026v2.091h-2.026v3.682c0 .558.262.836.787.836.43 0 .83-.102 1.206-.305v1.961a3.74 3.74 0 0 1-.852.362z" fill="#161616"/><path id="fullLogo-13" data-name="fullLogo" d="M81.768 26.643c-.005.086-.014.188-.024.306h-5.999c.119.557.363.979.733 1.262.37.285.827.426 1.375.426.406 0 .771-.069 1.092-.209.323-.14.654-.364.998-.675l1.4 1.238c-.409.504-.9.898-1.48 1.182-.58.284-1.26.426-2.043.426a4.92 4.92 0 0 1-1.792-.321 4.155 4.155 0 0 1-1.433-.917 4.247 4.247 0 0 1-.94-1.407c-.225-.541-.337-1.144-.337-1.809v-.032c0-.612.105-1.19.314-1.737.208-.547.501-1.023.876-1.43s.822-.73 1.342-.966a4.127 4.127 0 0 1 1.729-.354c.719 0 1.34.13 1.865.386.525.257.962.604 1.31 1.037.35.435.606.933.773 1.496.166.563.248 1.15.248 1.76v.033c0 .118-.002.22-.007.305zm-2.95-2.549c-.313-.337-.724-.506-1.239-.506s-.93.166-1.246.498-.523.778-.62 1.335h3.682c-.075-.547-.267-.988-.577-1.327z" fill="#161616"/><path id="fullLogo-14" data-name="fullLogo" d="M91.143 26.643c-.005.086-.014.188-.024.306H85.12c.119.557.363.979.733 1.262.37.285.827.426 1.375.426.406 0 .77-.069 1.092-.209.323-.14.654-.364.998-.675l1.4 1.238c-.41.504-.901.898-1.48 1.182-.58.284-1.26.426-2.044.426a4.92 4.92 0 0 1-1.792-.321 4.155 4.155 0 0 1-1.432-.917 4.247 4.247 0 0 1-.94-1.407c-.225-.541-.337-1.144-.337-1.809v-.032c0-.612.105-1.19.314-1.737.208-.547.5-1.023.876-1.43s.822-.73 1.342-.966a4.127 4.127 0 0 1 1.729-.354c.719 0 1.34.13 1.865.386.525.257.961.604 1.31 1.037.35.435.606.933.773 1.496.166.563.248 1.15.248 1.76v.033c0 .118-.002.22-.007.305zm-2.95-2.549c-.313-.337-.724-.506-1.24-.506s-.93.166-1.245.498-.523.778-.62 1.335h3.682c-.075-.547-.267-.988-.577-1.327z" fill="#161616"/><path id="fullLogo-15" data-name="fullLogo" d="M92.598 30.406V19.56h2.445v10.847h-2.445z" fill="#161616"/><path id="fullLogo-16" data-name="fullLogo" d="M59.999 37.466v2.428h5.37v2.235H60v4.357H57.52V35.231h8.572v2.235H60z" fill="#161616"/><path id="fullLogo-17" data-name="fullLogo" d="M72.395 40.263c-.814 0-1.455.247-1.92.74-.468.493-.7 1.26-.7 2.299v3.184H67.33v-8.619h2.445v1.737c.246-.59.584-1.06 1.012-1.415.429-.353 1.008-.515 1.738-.483v2.557h-.13z" fill="#161616"/><path id="fullLogo-18" data-name="fullLogo" d="M78.62 46.486v-.932c-.3.332-.66.597-1.08.795-.416.2-.926.298-1.526.298-.408 0-.79-.056-1.15-.169s-.673-.282-.94-.507c-.269-.225-.48-.5-.635-.828s-.234-.704-.234-1.134v-.031c0-.472.086-.88.257-1.222.172-.343.41-.627.717-.852.305-.226.668-.395 1.092-.507s.893-.169 1.408-.169c.44 0 .822.032 1.15.096.326.065.645.151.956.258v-.145c0-.514-.155-.906-.466-1.174-.312-.267-.773-.402-1.384-.402-.47 0-.886.04-1.245.12s-.738.197-1.135.347l-.61-1.866c.47-.204.965-.37 1.48-.498s1.135-.193 1.865-.193c1.34 0 2.315.327 2.926.98.61.655.917 1.566.917 2.735v5H78.62zm.046-3.473a3.72 3.72 0 0 0-.715-.234 3.874 3.874 0 0 0-.845-.088c-.525 0-.937.102-1.237.306-.3.204-.45.499-.45.884v.032c0 .333.122.59.37.773.246.182.567.273.965.273.577 0 1.042-.14 1.39-.418.348-.28.522-.644.522-1.094v-.434z" fill="#161616"/><path id="fullLogo-19" data-name="fullLogo" d="M93.316 46.486V41.69c0-.577-.122-1.013-.37-1.307-.246-.294-.6-.442-1.061-.442s-.824.148-1.085.442c-.264.294-.395.73-.395 1.307v4.796h-2.444V41.69c0-.577-.122-1.013-.37-1.307-.246-.294-.6-.442-1.06-.442s-.823.148-1.086.442-.395.73-.395 1.307v4.796h-2.444v-8.62h2.444V39.1c.14-.184.294-.36.46-.527.165-.167.35-.315.554-.445s.431-.232.684-.308c.251-.075.532-.114.843-.114.569 0 1.059.119 1.472.357.412.237.732.578.957 1.02.375-.453.793-.796 1.254-1.029s.986-.348 1.576-.348c.91 0 1.624.268 2.139.805.514.535.771 1.323.771 2.363v5.612h-2.445z" fill="#161616"/><path id="fullLogo-20" data-name="fullLogo" d="M97.512 37.12v-1.908h2.443v1.908h-2.443zm0 9.366v-8.62h2.444v8.62h-2.444z" fill="#161616"/><path id="fullLogo-21" data-name="fullLogo" d="M107.225 46.486V41.69c0-.577-.129-1.013-.387-1.307-.257-.294-.621-.442-1.092-.442-.473 0-.845.148-1.119.442-.272.294-.41.73-.41 1.307v4.796h-2.444v-8.62h2.444V39.1c.14-.184.293-.36.46-.527.165-.167.35-.315.554-.445s.43-.232.675-.308c.246-.075.525-.114.836-.114.933 0 1.654.285 2.163.853.508.568.763 1.35.763 2.347v5.58h-2.443z" fill="#161616"/><path id="fullLogo-22" data-name="fullLogo" d="M119.678 46.623c-.197.573-.498 1.043-.9 1.406-.402.365-.903.633-1.503.805-.602.17-1.303.257-2.108.257a8.612 8.612 0 0 1-2.025-.233 7.628 7.628 0 0 1-1.785-.667l.836-1.833c.45.246.903.439 1.359.578s.973.21 1.55.21c.838 0 1.456-.199 1.86-.595.4-.397.601-.982.601-1.753v-.419c-.363.44-.76.784-1.19 1.03-.427.247-.97.37-1.623.37-.504 0-.987-.088-1.448-.265s-.867-.437-1.221-.78-.635-.764-.845-1.263-.314-1.07-.314-1.712v-.032c0-.643.108-1.214.323-1.713.213-.498.497-.919.852-1.262a3.59 3.59 0 0 1 1.22-.78 3.986 3.986 0 0 1 1.433-.265c.665 0 1.211.123 1.64.37.428.246.81.552 1.142.916v-1.126h2.444v6.674c0 .815-.1 1.508-.298 2.082zm-2.115-4.897a1.973 1.973 0 0 0-.602-1.44 1.985 1.985 0 0 0-.668-.41c-.257-.095-.536-.143-.836-.143s-.576.048-.827.144a1.915 1.915 0 0 0-1.103 1.046c-.106.246-.16.514-.16.803v.033c0 .6.199 1.082.595 1.447s.895.547 1.495.547c.3 0 .58-.049.836-.145.258-.097.48-.234.668-.41.187-.177.335-.389.442-.635a1.98 1.98 0 0 0 .16-.804v-.033z" fill="#161616"/></svg>