<svg width="1480" height="152" viewBox="0 0 1480 152" fill="none" xmlns="http://www.w3.org/2000/svg">
<path d="M0 0H703V152H0V0Z" fill="url(#paint0_linear_192_179)"/>
<path d="M263.016 34.8456C240.36 12.3848 203.64 12.3848 180.984 34.8456C164.403 51.2848 159.437 76.0122 168.421 97.5117C177.404 118.987 198.559 133 222 133C245.441 133 266.619 118.987 275.579 97.5117C284.563 76.0351 279.598 51.2848 263.016 34.8456ZM221.238 112.623L184.448 76.1496H211.7L221.238 85.6056V112.623ZM211.654 70.4028H184.402L211.261 43.7749L238.328 43.9352L211.631 70.4028H211.654ZM227.034 85.6285L253.709 59.2067L253.871 86.0406L227.034 112.645V85.6285Z" fill="#F2EED8"/>
<path d="M457 21H430V130H457V21Z" fill="#F2EED8"/>
<path d="M528.278 41.0554C540.009 41.0554 548.529 44.3293 554.132 47.9489L556 24.7091C549.531 20.928 538.824 18 525.203 18C496.797 18 466 37.6201 466 75.5002C466 113.381 496.615 133 525.203 133C538.301 133 547.481 130.764 553.608 127.144L555.817 103.213C549.872 107.178 540.852 109.76 529.121 109.76C508.551 109.76 492.719 96.1575 492.719 75.5002C492.719 54.6811 508.551 41.0784 528.278 41.0784V41.0554Z" fill="#F2EED8"/>
<path d="M614.729 75.1683L652.811 21H623.946L590.462 67.8025V21H564V130H590.462V85.0732L623.26 130H654L614.729 75.1683Z" fill="#F2EED8"/>
<path d="M390.375 65.1973C388.008 72.3762 386.054 79.6927 384.537 87.1238H384.192C382.468 79.2569 380.4 71.023 378.515 65.0367L364.266 21H341.26L326.85 65.1973C324.505 72.3991 322.552 79.7156 321.012 87.1238H320.667C319.242 79.6927 317.288 72.3532 314.83 65.1973L300.58 21H275L311.566 130.977H328.55L344.523 82.6972C346.937 75.4954 349.327 67.9725 351.74 58.3624H352.085C354.498 67.9495 356.888 75.312 359.301 82.6972L375.252 131H392.236L420 47.4679L402.096 29.6009L390.328 65.2202L390.375 65.1973Z" fill="#F2EED8"/>
<path d="M127.687 64.051H85.4956V21.1144L85.0838 21H59V130H85.4956V86.7659H127.687V130H154V21H127.687V64.051Z" fill="#F2EED8"/>
<path d="M800.764 30.4141V72.6309H825.149C832.096 72.6309 837.431 70.7331 841.155 66.9375C844.95 63.1419 846.848 58.0573 846.848 51.6836C846.848 45.2383 844.95 40.082 841.155 36.2148C837.431 32.3477 832.096 30.4141 825.149 30.4141H800.764ZM825.149 97.7676H800.764V146H768V5.27734H825.149C841.835 5.27734 855.048 9.5026 864.788 17.9531C874.599 26.4036 879.504 37.6113 879.504 51.5762C879.504 65.541 874.599 76.7487 864.788 85.1992C855.048 93.5781 841.835 97.7676 825.149 97.7676Z" fill="black"/>
<path d="M981.766 88.5293V62.9629C981.766 52.6504 979.366 44.3431 974.576 38.041C969.776 31.7389 963.076 28.5879 954.485 28.5879C945.891 28.5879 939.195 31.7389 934.397 38.041C929.67 44.2715 927.307 52.5788 927.307 62.9629V88.5293C927.307 98.985 929.706 107.364 934.504 113.666C939.374 119.968 946.07 123.119 954.592 123.119C963.186 123.119 969.846 119.968 974.576 113.666C979.366 107.364 981.766 98.985 981.766 88.5293ZM1014.32 63.1777V88.5293C1014.32 106.003 1008.81 120.326 997.776 131.498C986.816 142.67 972.456 148.256 954.7 148.256C936.939 148.256 922.509 142.67 911.409 131.498C900.308 120.326 894.758 106.003 894.758 88.5293V63.1777C894.758 51.7194 897.229 41.4785 902.17 32.4551C907.183 23.36 914.237 16.2702 923.332 11.1855C932.499 6.0293 942.919 3.45117 954.592 3.45117C972.286 3.45117 986.636 9.03711 997.666 20.209C1008.77 31.3809 1014.32 45.7038 1014.32 63.1777Z" fill="black"/>
<path d="M1066.1 145.785H1033.34V5.0625H1087.48C1103.88 5.0625 1116.8 8.82227 1126.26 16.3418C1135.78 23.8613 1140.54 34.1738 1140.54 47.2793C1140.54 61.6738 1132.95 72.2012 1117.77 78.8613C1126.22 81.2962 1132.38 85.3066 1136.25 90.8926C1140.11 96.4785 1142.05 103.676 1142.05 112.484V121.293C1142.05 125.733 1142.66 130.173 1143.87 134.613C1145.09 139.053 1146.95 142.204 1149.46 144.066V146H1115.73C1111.58 142.706 1109.5 134.47 1109.5 121.293V112.699C1109.5 105.967 1107.71 100.847 1104.13 97.3379C1100.62 93.8288 1095.43 92.0742 1088.55 92.0742L1066.1 91.8594V145.785ZM1066.1 30.4141V66.9375H1087.58C1094.17 66.9375 1099.19 65.4694 1102.62 62.5332C1106.13 59.5254 1107.89 55.1569 1107.89 49.4277C1107.89 43.627 1106.1 39.0078 1102.52 35.5703C1098.94 32.1328 1093.92 30.4141 1087.48 30.4141H1066.1Z" fill="black"/>
<path d="M1257.42 5.27734V30.4141H1220.25V146H1187.49V30.4141H1150.64V5.27734H1257.42Z" fill="black"/>
<path d="M1343.03 146L1334.98 118.607H1290.61L1282.66 146H1249.79L1295.23 5.27734H1330.36L1375.9 146H1343.03ZM1312.53 43.0898L1297.92 93.4707H1327.78L1313.06 43.0898H1312.53Z" fill="black"/>
<path d="M1418.66 5.27734V120.863H1479.24V146H1385.9V5.27734H1418.66Z" fill="black"/>
<defs>
<linearGradient id="paint0_linear_192_179" x1="815.368" y1="4.74313e-07" x2="813.942" y2="152.046" gradientUnits="userSpaceOnUse">
<stop stop-color="#0084C9"/>
<stop offset="1" stop-color="#10079F"/>
</linearGradient>
</defs>
</svg>
