<svg xmlns="http://www.w3.org/2000/svg" width="940" height="388" fill="none"><path fill="url(#a)" d="M271.5 46.8a62.6 62.6 0 1 0 88.6 88.4 62.6 62.6 0 0 0-88.6-88.4Zm43.4 84.6-39.6-39.7h29.3l10.3 10.3v29.3Zm-10.4-46h-29.3l29-28.9 29 .2-28.7 28.8Zm16.6 46V102l28.7-28.7.2 29.2-28.9 28.9Zm220-99.9h28.7v118.6h-28.7V31.5Zm106 22.2c12.8 0 22.1 3.5 28.2 7.4l2-25c-7-4.2-18.7-7.3-33.6-7.3-31 0-64.6 21.1-64.6 62 0 41 33.4 62.1 64.6 62.1 14.3 0 24.4-2.4 31-6.3l2.5-25.8c-6.5 4.2-16.4 7-29.2 7-22.4 0-39.7-14.7-39.7-37 0-22.4 17.3-37.1 38.8-37.1Zm93.3 36.8 41.4-59h-31.4l-36.4 51v-51h-28.8v118.6H714v-48.9l35.6 49h33.5l-42.7-59.7Zm-243.1-11c-2.6 7.8-4.7 15.7-6.4 23.8h-.3c-1.9-8.6-4.1-17.5-6.2-24L469 31.5h-24.9l-15.6 48a225 225 0 0 0-6.3 23.8h-.3c-1.6-8-3.7-16-6.4-23.8l-15.4-48h-27.7L412 151h18.4l17.3-52.4c2.6-7.8 5.2-16 7.8-26.4h.3c2.7 10.4 5.2 18.4 7.8 26.4l17.3 52.4h18.4l30-90.7L510 41l-12.7 38.6Zm-283.6-1.1h-46V31.6l-.3-.1H139v118.6h28.8v-47h45.8v47h28.6V31.5h-28.6v46.9Z"/><path fill="#000" d="M55.8 208.9v53.7h31c8.9 0 15.6-2.4 20.4-7.2a26.2 26.2 0 0 0 7.2-19.4c0-8.2-2.4-14.8-7.2-19.7-4.8-5-11.5-7.4-20.4-7.4h-31Zm31 85.7h-31V356H14V176.9h72.7c21.3 0 38 5.4 50.5 16.1a53.7 53.7 0 0 1 18.7 42.8c0 17.8-6.2 32-18.7 42.8-12.4 10.7-29.2 16-50.5 16ZM286.2 282.9v-32.6a51 51 0 0 0-9.2-31.7c-6.1-8-14.6-12-25.6-12-11 0-19.4 4-25.5 12-6 8-9 18.5-9 31.7V283c0 13.3 3 24 9.1 32 6.2 8 14.7 12 25.6 12 10.9 0 19.4-4 25.4-12 6.1-8 9.2-18.7 9.2-32Zm41.4-32.3v32.3c0 22.2-7 40.4-21 54.6a73.4 73.4 0 0 1-54.9 21.4c-22.6 0-41-7.1-55.1-21.4a74.3 74.3 0 0 1-21.2-54.6v-32.3a80 80 0 0 1 9.4-39.1 68.1 68.1 0 0 1 27-27c11.6-6.6 25-10 39.8-10 22.5 0 40.8 7.2 54.8 21.4a74.3 74.3 0 0 1 21.2 54.7ZM393.5 355.7h-41.7v-179h68.9c20.9 0 37.3 4.7 49.3 14.3a47.4 47.4 0 0 1 18.2 39.4c0 18.3-9.6 31.7-29 40.2a41.1 41.1 0 0 1 23.6 15.3c4.9 7 7.3 16.2 7.3 27.4v11.3c0 5.6.8 11.3 2.4 17 1.5 5.6 3.9 9.6 7 12v2.4h-42.9c-5.2-4.2-7.9-14.7-7.9-31.4v-11c0-8.6-2.3-15-6.8-19.5s-11.1-6.7-19.8-6.7l-28.6-.3v68.6Zm0-146.8v46.5h27.3c8.4 0 14.8-1.9 19.2-5.6 4.4-3.9 6.7-9.4 6.7-16.7 0-7.4-2.3-13.3-6.9-17.6-4.5-4.4-11-6.6-19.1-6.6h-27.2ZM637 176.9v32h-47.3V356H548V208.9h-47v-32h136ZM746 356l-10.3-34.9h-56.5L669.1 356h-41.8L685 176.9h44.7l58 179.1h-41.9ZM707 225l-18.6 64.1h38l-18.7-64h-.7ZM842.2 176.9V324h77.1v32H800.5V176.9h41.7Z"/><defs><linearGradient id="a" x1="461" x2="461" y1="153.5" y2="28.5" gradientUnits="userSpaceOnUse"><stop stop-color="#0084C9"/><stop offset="1" stop-color="#10079F"/></linearGradient></defs></svg>