<svg width="1520" height="152" viewBox="0 0 1520 152" fill="none" xmlns="http://www.w3.org/2000/svg">
    <path
        d="M263.176 24.3293C234.538 -4.2198 188.121 -4.2198 159.482 24.3293C138.522 45.2246 132.245 76.6548 143.601 103.982C154.957 131.279 181.698 149.09 211.329 149.09C240.96 149.09 267.731 131.279 279.057 103.982C290.414 76.6839 284.137 45.2246 263.176 24.3293ZM210.366 123.189L163.861 76.8294H198.309L210.366 88.8486V123.16V123.189ZM198.251 69.5248H163.803L197.755 35.6791L231.969 35.8828L198.222 69.5248H198.251ZM217.693 123.189V88.8777L251.412 55.2939L251.616 89.4015L217.693 123.218V123.189Z"
        fill="#D3D3D3" />
    <path d="M509.742 6.46063H475.936V145.132H509.742V6.46063Z" fill="#D3D3D3" />
    <path
        d="M600.416 32.3324C615.45 32.3324 626.369 36.4649 633.55 41.0339L635.944 11.699C627.653 6.92631 613.932 3.23035 596.475 3.23035C560.071 3.23035 520.602 27.9962 520.602 75.8109C520.602 123.626 559.837 148.391 596.475 148.391C613.261 148.391 625.026 145.568 632.879 140.999L635.71 110.792C628.091 115.797 616.531 119.056 601.496 119.056C575.135 119.056 554.845 101.886 554.845 75.8109C554.845 49.5317 575.135 32.3615 600.416 32.3615V32.3324Z"
        fill="#D3D3D3" />
    <path
        d="M709.919 75.3743L758.526 6.46063H721.684L678.945 66.0034V6.46063H645.169V145.132H678.945V87.9755L720.808 145.132H760.044L709.919 75.3743Z"
        fill="#D3D3D3" />
    <path
        d="M424.469 62.5403C421.462 71.6492 418.98 80.9328 417.054 90.3618H416.616C414.426 80.3798 411.799 69.9322 409.405 62.3366L391.305 6.46063H362.083L343.779 62.5403C340.801 71.6783 338.32 80.9619 336.364 90.3618H335.926C334.116 80.9328 331.634 71.6201 328.511 62.5403L310.411 6.46063H277.919L324.365 146.005H345.939L366.228 84.7451C369.294 75.6071 372.33 66.0616 375.395 53.8679H375.833C378.898 66.0325 381.934 75.3743 384.999 84.7451L405.26 146.034H426.833L462.099 40.0444L439.357 17.3739L424.41 62.5694L424.469 62.5403Z"
        fill="#D3D3D3" />
    <path
        d="M91.5206 61.2307H37.6884V6.60614L37.1629 6.46063H3.88269V145.132H37.6884V90.129H91.5206V145.132H125.093V6.46063H91.5206V61.2307Z"
        fill="#D3D3D3" />
    <path
        d="M840.828 30.4141V72.6309H865.213C872.16 72.6309 877.495 70.7331 881.219 66.9375C885.014 63.1419 886.912 58.0573 886.912 51.6836C886.912 45.2383 885.014 40.082 881.219 36.2148C877.495 32.3477 872.16 30.4141 865.213 30.4141H840.828ZM865.213 97.7676H840.828V146H808.064V5.27734H865.213C881.899 5.27734 895.112 9.5026 904.852 17.9531C914.663 26.4036 919.568 37.6113 919.568 51.5762C919.568 65.541 914.663 76.7487 904.852 85.1992C895.112 93.5781 881.899 97.7676 865.213 97.7676Z"
        fill="#10079F" />
    <path
        d="M1021.83 88.5293V62.9629C1021.83 52.6504 1019.43 44.3431 1014.64 38.041C1009.84 31.7389 1003.14 28.5879 994.549 28.5879C985.955 28.5879 979.259 31.7389 974.461 38.041C969.734 44.2715 967.371 52.5788 967.371 62.9629V88.5293C967.371 98.985 969.77 107.364 974.568 113.666C979.438 119.968 986.134 123.119 994.656 123.119C1003.25 123.119 1009.91 119.968 1014.64 113.666C1019.43 107.364 1021.83 98.985 1021.83 88.5293ZM1054.38 63.1777V88.5293C1054.38 106.003 1048.87 120.326 1037.84 131.498C1026.88 142.67 1012.52 148.256 994.764 148.256C977.003 148.256 962.573 142.67 951.473 131.498C940.372 120.326 934.822 106.003 934.822 88.5293V63.1777C934.822 51.7194 937.293 41.4785 942.234 32.4551C947.247 23.36 954.301 16.2702 963.396 11.1855C972.563 6.0293 982.983 3.45117 994.656 3.45117C1012.35 3.45117 1026.7 9.03711 1037.73 20.209C1048.83 31.3809 1054.38 45.7038 1054.38 63.1777Z"
        fill="#10079F" />
    <path
        d="M1106.16 145.785H1073.4V5.0625H1127.54C1143.94 5.0625 1156.86 8.82227 1166.32 16.3418C1175.84 23.8613 1180.6 34.1738 1180.6 47.2793C1180.6 61.6738 1173.01 72.2012 1157.83 78.8613C1166.28 81.2962 1172.44 85.3066 1176.31 90.8926C1180.17 96.4785 1182.11 103.676 1182.11 112.484V121.293C1182.11 125.733 1182.72 130.173 1183.93 134.613C1185.15 139.053 1187.01 142.204 1189.52 144.066V146H1155.79C1151.64 142.706 1149.56 134.47 1149.56 121.293V112.699C1149.56 105.967 1147.77 100.847 1144.19 97.3379C1140.68 93.8288 1135.49 92.0742 1128.61 92.0742L1106.16 91.8594V145.785ZM1106.16 30.4141V66.9375H1127.64C1134.23 66.9375 1139.25 65.4694 1142.68 62.5332C1146.19 59.5254 1147.95 55.1569 1147.95 49.4277C1147.95 43.627 1146.16 39.0078 1142.58 35.5703C1139 32.1328 1133.98 30.4141 1127.54 30.4141H1106.16Z"
        fill="#10079F" />
    <path d="M1297.48 5.27734V30.4141H1260.31V146H1227.55V30.4141H1190.7V5.27734H1297.48Z" fill="#10079F" />
    <path
        d="M1383.09 146L1375.04 118.607H1330.67L1322.72 146H1289.85L1335.29 5.27734H1370.42L1415.96 146H1383.09ZM1352.59 43.0898L1337.98 93.4707H1367.84L1353.12 43.0898H1352.59Z"
        fill="#10079F" />
    <path d="M1458.72 5.27734V120.863H1519.3V146H1425.96V5.27734H1458.72Z" fill="#10079F" />
</svg>