<svg width="1517" height="148" viewBox="0 0 1517 148" fill="none" xmlns="http://www.w3.org/2000/svg">
<path d="M260.176 22.3293C231.538 -6.2198 185.121 -6.2198 156.482 22.3293C135.522 43.2246 129.245 74.6548 140.601 101.982C151.957 129.279 178.698 147.09 208.329 147.09C237.96 147.09 264.731 129.279 276.057 101.982C287.414 74.6839 281.137 43.2246 260.176 22.3293ZM207.366 121.189L160.861 74.8294H195.309L207.366 86.8486V121.189ZM195.251 67.5248H160.803L194.755 33.6791L228.969 33.8828L195.222 67.5248H195.251ZM214.693 86.8777L248.412 53.2939L248.616 87.4015L214.693 121.218V86.8777Z" fill="url(#paint0_linear_192_194)"/>
<path d="M506.742 4.46064H472.936V143.132H506.742V4.46064Z" fill="url(#paint1_linear_192_194)"/>
<path d="M597.416 30.3324C612.45 30.3324 623.369 34.4649 630.55 39.0339L632.944 9.69901C624.653 4.92632 610.932 1.23036 593.475 1.23036C557.071 1.23036 517.602 25.9962 517.602 73.8109C517.602 121.626 556.837 146.391 593.475 146.391C610.261 146.391 622.026 143.568 629.879 138.999L632.71 108.792C625.091 113.797 613.531 117.056 598.496 117.056C572.135 117.056 551.845 99.886 551.845 73.8109C551.845 47.5317 572.135 30.3615 597.416 30.3615V30.3324Z" fill="url(#paint2_linear_192_194)"/>
<path d="M706.919 73.3743L755.526 4.46064H718.684L675.945 64.0034V4.46064H642.169V143.132H675.945V85.9755L717.808 143.132H757.044L706.919 73.3743Z" fill="url(#paint3_linear_192_194)"/>
<path d="M421.469 60.5403C418.462 69.6492 415.98 78.9328 414.054 88.3618H413.616C411.426 78.3798 408.799 67.9322 406.405 60.3366L388.305 4.46064H359.083L340.779 60.5403C337.801 69.6783 335.32 78.9619 333.364 88.3618H332.926C331.116 78.9328 328.634 69.6201 325.511 60.5403L307.411 4.46064H274.919L321.365 144.005H342.939L363.228 82.7451C366.294 73.6071 369.33 64.0616 372.395 51.8679H372.833C375.898 64.0325 378.934 73.3743 381.999 82.7451L402.26 144.034H423.833L459.099 38.0444L436.357 15.3739L421.41 60.5694L421.469 60.5403Z" fill="url(#paint4_linear_192_194)"/>
<path d="M88.5207 59.2307H34.6885V4.60615L34.163 4.46064H0.882812V143.132H34.6885V88.129H88.5207V143.132H122.093V4.46064H88.5207V59.2307Z" fill="url(#paint5_linear_192_194)"/>
<path d="M837.828 28.4141V70.6309H862.213C869.16 70.6309 874.495 68.7331 878.219 64.9375C882.014 61.1419 883.912 56.0573 883.912 49.6836C883.912 43.2383 882.014 38.082 878.219 34.2148C874.495 30.3477 869.16 28.4141 862.213 28.4141H837.828ZM862.213 95.7676H837.828V144H805.064V3.27735H862.213C878.899 3.27735 892.112 7.50261 901.852 15.9531C911.663 24.4036 916.568 35.6113 916.568 49.5762C916.568 63.541 911.663 74.7487 901.852 83.1992C892.112 91.5781 878.899 95.7676 862.213 95.7676Z" fill="black"/>
<path d="M1018.83 86.5293V60.9629C1018.83 50.6504 1016.43 42.3431 1011.64 36.041C1006.84 29.7389 1000.14 26.5879 991.549 26.5879C982.955 26.5879 976.259 29.7389 971.461 36.041C966.734 42.2715 964.371 50.5788 964.371 60.9629V86.5293C964.371 96.985 966.77 105.364 971.568 111.666C976.438 117.968 983.134 121.119 991.656 121.119C1000.25 121.119 1006.91 117.968 1011.64 111.666C1016.43 105.364 1018.83 96.985 1018.83 86.5293ZM1051.38 61.1777V86.5293C1051.38 104.003 1045.87 118.326 1034.84 129.498C1023.88 140.67 1009.52 146.256 991.764 146.256C974.003 146.256 959.573 140.67 948.473 129.498C937.372 118.326 931.822 104.003 931.822 86.5293V61.1777C931.822 49.7194 934.293 39.4785 939.234 30.4551C944.247 21.36 951.301 14.2702 960.396 9.18551C969.563 4.02931 979.983 1.45118 991.656 1.45118C1009.35 1.45118 1023.7 7.03712 1034.73 18.209C1045.83 29.3809 1051.38 43.7038 1051.38 61.1777Z" fill="black"/>
<path d="M1103.16 143.785H1070.4V3.06251H1124.54C1140.94 3.06251 1153.86 6.82228 1163.32 14.3418C1172.84 21.8613 1177.6 32.1738 1177.6 45.2793C1177.6 59.6738 1170.01 70.2012 1154.83 76.8613C1163.28 79.2962 1169.44 83.3066 1173.31 88.8926C1177.17 94.4785 1179.11 101.676 1179.11 110.484V119.293C1179.11 123.733 1179.72 128.173 1180.93 132.613C1182.15 137.053 1184.01 140.204 1186.52 142.066V144H1152.79C1148.64 140.706 1146.56 132.47 1146.56 119.293V110.699C1146.56 103.967 1144.77 98.847 1141.19 95.3379C1137.68 91.8288 1132.49 90.0742 1125.61 90.0742L1103.16 89.8594V143.785ZM1103.16 28.4141V64.9375H1124.64C1131.23 64.9375 1136.25 63.4694 1139.68 60.5332C1143.19 57.5254 1144.95 53.1569 1144.95 47.4277C1144.95 41.627 1143.16 37.0078 1139.58 33.5703C1136 30.1328 1130.98 28.4141 1124.54 28.4141H1103.16Z" fill="black"/>
<path d="M1294.48 3.27735V28.4141H1257.31V144H1224.55V28.4141H1187.7V3.27735H1294.48Z" fill="black"/>
<path d="M1380.09 144L1372.04 116.607H1327.67L1319.72 144H1286.85L1332.29 3.27735H1367.42L1412.96 144H1380.09ZM1349.59 41.0898L1334.98 91.4707H1364.84L1350.12 41.0898H1349.59Z" fill="black"/>
<path d="M1455.72 3.27735V118.863H1516.3V144H1422.96V3.27735H1455.72Z" fill="black"/>
<defs>
<linearGradient id="paint0_linear_192_194" x1="758.591" y1="0.91748" x2="758.591" y2="147.09" gradientUnits="userSpaceOnUse">
<stop stop-color="#0084C9"/>
<stop offset="1" stop-color="#10079F"/>
</linearGradient>
<linearGradient id="paint1_linear_192_194" x1="758.591" y1="0.91748" x2="758.591" y2="147.09" gradientUnits="userSpaceOnUse">
<stop stop-color="#0084C9"/>
<stop offset="1" stop-color="#10079F"/>
</linearGradient>
<linearGradient id="paint2_linear_192_194" x1="758.591" y1="0.91748" x2="758.591" y2="147.09" gradientUnits="userSpaceOnUse">
<stop stop-color="#0084C9"/>
<stop offset="1" stop-color="#10079F"/>
</linearGradient>
<linearGradient id="paint3_linear_192_194" x1="758.591" y1="0.91748" x2="758.591" y2="147.09" gradientUnits="userSpaceOnUse">
<stop stop-color="#0084C9"/>
<stop offset="1" stop-color="#10079F"/>
</linearGradient>
<linearGradient id="paint4_linear_192_194" x1="758.591" y1="0.91748" x2="758.591" y2="147.09" gradientUnits="userSpaceOnUse">
<stop stop-color="#0084C9"/>
<stop offset="1" stop-color="#10079F"/>
</linearGradient>
<linearGradient id="paint5_linear_192_194" x1="758.591" y1="0.91748" x2="758.591" y2="147.09" gradientUnits="userSpaceOnUse">
<stop stop-color="#0084C9"/>
<stop offset="1" stop-color="#10079F"/>
</linearGradient>
</defs>
</svg>
