<?xml version="1.0" encoding="UTF-8" standalone="no"?>
<svg
   width="132.92157"
   height="30.663057"
   viewBox="0 0 132.92157 30.663057"
   fill="none"
   version="1.1"
   id="svg4"
   xmlns="http://www.w3.org/2000/svg"
   xmlns:svg="http://www.w3.org/2000/svg">
  <path
     d="M 1.1945801e-7,1.4957591 C 1.1945801e-7,0.66967454 0.79348072,1.4047241e-7 1.7722868,1.4047241e-7 H 131.14929 c 0.97919,0 1.77229,0.66967369952759 1.77229,1.49575895952759 V 29.167299 c 0,0.826107 -0.7931,1.495759 -1.77229,1.495759 H 1.7722868 C 0.79347892,30.663058 1.1945801e-7,29.993406 1.1945801e-7,29.167299 Z"
     fill="url(#paint0_linear_196_174)"
     id="path2"
     style="fill:url(#paint0_linear_196_174);stroke-width:0.814081" />
  <path
     d="m 33.228654,7.2006321 c -3.2153,3.2878999 -4.1782,8.2378989 -2.4361,12.5331989 1.742,4.295301 5.8441,7.0977 10.3895,7.0977 4.5454,0 8.652,-2.802399 10.3895,-7.0977 1.7421,-4.2953 0.7793,-9.245299 -2.4361,-12.5331989 -4.3932,-4.4921403 -11.5136,-4.4921403 -15.9068,0 z m 7.8056,15.5553989 -7.1338,-7.2946 h 5.2843 l 1.8495,1.891201 z m -1.8584,-8.4439 h -5.2844 l 5.2082,-5.3255989 5.2485,0.032 -5.1768,5.2935989 z m 2.9825,3.045101 5.1723,-5.284301 0.0314,5.3667 -5.2037,5.321 z m 39.6145,-12.9681902 h 5.1858 V 26.208731 h -5.1858 z m 19.099796,4.0708903 c 2.306,0 3.981,0.6502 5.083,1.3692 l 0.367,-4.6158 c -1.272,-0.7510203 -3.377,-1.3325703 -6.055,-1.3325703 -5.584003,0 -11.638598,3.8968703 -11.638598,11.4204692 0,7.523501 6.018595,11.4204 11.638598,11.4204 2.575,0 4.38,-0.444199 5.585,-1.1631 l 0.434,-4.753199 c -1.169,0.787599 -2.942,1.300499 -5.248,1.300499 -4.044003,0 -7.157003,-2.701699 -7.157003,-6.8046 0,-4.134999 3.113,-6.8366989 6.991003,-6.8366989 z m 16.798,6.7725989 7.456,-10.8434892 h -5.651 l -6.557,9.3689902 V 4.3890418 h -5.181 V 26.208731 h 5.181 v -8.993399 l 6.422,8.993399 h 6.019 z m -43.783996,-2.0194 c -0.4612,1.433201 -0.8419,2.894001 -1.1374,4.3776 h -0.0672 c -0.3359,-1.570599 -0.7389,-3.2145 -1.1061,-4.4097 l -2.7765,-8.7919892 h -4.4828 l -2.8078,8.8240892 c -0.4568,1.437801 -0.8375,2.898601 -1.1375,4.3776 h -0.0672 c -0.2776,-1.483599 -0.6583,-2.948899 -1.1374,-4.3776 l -2.7766,-8.8240892 h -4.9843 l 7.1249,21.9570902 h 3.3095 l 3.1123,-9.639101 c 0.4703,-1.4379 0.936,-2.939899 1.4062,-4.8585 h 0.0672 c 0.4702,1.914101 0.9359,3.384 1.4062,4.8585 l 3.1079,9.643701 h 3.3094 l 5.4097,-16.6772999 -3.4885,-3.5672 -2.2929,7.1113989 z m -51.0743,-0.2061 h -8.2669 V 4.4119418 l -0.0761,-0.02748 H 9.3596538 V 26.208731 h 5.1858002 v -8.6546 h 8.2579 v 8.6546 h 5.15 V 4.3890418 h -5.15 v 8.6179892 z"
     fill="#f2eed8"
     id="path3" />
  <defs
     id="defs4">
    <linearGradient
       id="paint0_linear_196_174"
       x1="74.997101"
       y1="41"
       x2="74.997101"
       y2="-0.00204067"
       gradientUnits="userSpaceOnUse"
       gradientTransform="scale(0.88614378,0.74787946)">
      <stop
         stop-color="#0084C9"
         id="stop3" />
      <stop
         offset="0.98"
         stop-color="#10079F"
         id="stop4" />
    </linearGradient>
  </defs>
</svg>
