<svg width="150" height="41" viewBox="0 0 150 41" fill="none" xmlns="http://www.w3.org/2000/svg">
<path d="M0 2C0 0.895431 0.895431 0 2 0H148C149.105 0 150 0.89543 150 2V39C150 40.1046 149.105 41 148 41H2C0.895429 41 0 40.1046 0 39V2Z" fill="#D9D9D9"/>
<path d="M0 2C0 0.895431 0.895431 0 2 0H148C149.105 0 150 0.89543 150 2V39C150 40.1046 149.105 41 148 41H2C0.895429 41 0 40.1046 0 39V2Z" fill="url(#paint0_linear_196_174)"/>
<path d="M40.869 12.3691C37.6537 15.657 36.6908 20.607 38.4329 24.9023C40.1749 29.1976 44.277 32 48.8224 32C53.3678 32 57.4744 29.1976 59.2119 24.9023C60.954 20.607 59.9912 15.657 56.7758 12.3691C52.3826 7.87696 45.2622 7.87696 40.869 12.3691ZM48.6746 27.9245L41.5408 20.6299H46.8251L48.6746 22.5211V27.9245ZM46.8162 19.4806H41.5318L46.74 14.155L51.9885 14.187L46.8117 19.4806H46.8162ZM49.7987 22.5257L54.971 17.2414L55.0024 22.6081L49.7987 27.9291V22.5257ZM89.4132 9.55751H94.599V31.3772H89.4132V9.55751ZM108.513 13.6284C110.819 13.6284 112.494 14.2786 113.596 14.9976L113.963 10.3818C112.691 9.63078 110.586 9.04923 107.908 9.04923C102.324 9.04923 96.2694 12.9461 96.2694 20.4697C96.2694 27.9932 102.288 31.8901 107.908 31.8901C110.483 31.8901 112.288 31.4459 113.493 30.727L113.927 25.9738C112.758 26.7614 110.985 27.2743 108.679 27.2743C104.635 27.2743 101.522 24.5726 101.522 20.4697C101.522 16.3347 104.635 13.633 108.513 13.633V13.6284ZM125.311 20.401L132.767 9.55751H127.116L120.559 18.9265V9.55751H115.378V31.3772H120.559V22.3838L126.981 31.3772H133L125.311 20.401ZM81.527 18.3816C81.0658 19.8148 80.6851 21.2756 80.3896 22.7592H80.3224C79.9865 21.1886 79.5835 19.5447 79.2163 18.3495L76.4398 9.55751H71.957L69.1492 18.3816C68.6924 19.8194 68.3117 21.2802 68.0117 22.7592H67.9445C67.6669 21.2756 67.2862 19.8103 66.8071 18.3816L64.0305 9.55751H59.0462L66.1711 31.5146H69.4806L72.5929 21.8755C73.0632 20.4376 73.5289 18.9356 73.9991 17.017H74.0663C74.5365 18.9311 75.0022 20.401 75.4725 21.8755L78.5804 31.5192H81.8898L87.2995 14.8419L83.811 11.2747L81.5181 18.3861L81.527 18.3816ZM30.4527 18.1755H22.1858V9.58041L22.1097 9.55293H17V31.3772H22.1858V22.7226H30.4437V31.3772H35.5937V9.55751H30.4437V18.1755H30.4527Z" fill="#F2EED8"/>
<defs>
<linearGradient id="paint0_linear_196_174" x1="74.9971" y1="41" x2="74.9971" y2="-0.00204067" gradientUnits="userSpaceOnUse">
<stop stop-color="#0084C9"/>
<stop offset="0.98" stop-color="#10079F"/>
</linearGradient>
</defs>
</svg>
