<svg xmlns="http://www.w3.org/2000/svg" width="906" height="185" fill="none">
    <path fill="#0E0E10"
        d="M41.8 34.9v53.7h31c8.9 0 15.6-2.4 20.4-7.2a26.2 26.2 0 0 0 7.2-19.4c0-8.2-2.4-14.8-7.2-19.7-4.8-5-11.5-7.4-20.4-7.4h-31Zm31 85.7h-31V182H0V2.9h72.7c21.3 0 38 5.4 50.5 16.1A53.7 53.7 0 0 1 142 61.8c0 17.8-6.2 32-18.7 42.8-12.4 10.7-29.2 16-50.5 16ZM272.2 108.9V76.3a51 51 0 0 0-9.2-31.7c-6.1-8-14.6-12-25.6-12-11 0-19.4 4-25.5 12-6 8-9 18.5-9 31.7V109c0 13.3 3 24 9.1 32 6.2 8 14.7 12 25.6 12 10.9 0 19.4-4 25.4-12 6.1-8 9.2-18.7 9.2-32Zm41.4-32.3v32.3c0 22.2-7 40.4-21 54.6a73.4 73.4 0 0 1-54.9 21.4c-22.6 0-41-7.1-55.1-21.4a74.3 74.3 0 0 1-21.2-54.6V76.6a80 80 0 0 1 9.4-39.1 68.1 68.1 0 0 1 27-27c11.6-6.6 25-10 39.8-10 22.5 0 40.8 7.2 54.8 21.4a74.3 74.3 0 0 1 21.2 54.7ZM379.5 181.7h-41.7V2.7h68.9C427.6 2.6 444 7.3 456 17a47.4 47.4 0 0 1 18.2 39.4c0 18.3-9.6 31.7-29 40.2a41.1 41.1 0 0 1 23.6 15.3c4.9 7 7.3 16.2 7.3 27.4v11.3c0 5.6.8 11.3 2.4 17 1.5 5.6 3.9 9.6 7 12v2.4h-42.9c-5.2-4.2-7.9-14.7-7.9-31.4v-11c0-8.6-2.3-15-6.8-19.5s-11.1-6.7-19.8-6.7l-28.6-.3v68.6Zm0-146.8v46.5h27.3c8.4 0 14.8-1.9 19.2-5.6 4.4-3.9 6.7-9.4 6.7-16.7 0-7.4-2.3-13.3-6.9-17.6-4.5-4.4-11-6.6-19.1-6.6h-27.2ZM623 2.9v32h-47.3V182H534V34.9h-47v-32h136ZM732 182l-10.3-34.9h-56.5L655.1 182h-41.8L671 2.9h44.7l58 179.1h-41.9ZM693 51l-18.6 64.1h38l-18.7-64h-.7ZM828.2 2.9V150h77.1v32H786.5V2.9h41.7Z" />
</svg>