<?xml version="1.0" encoding="UTF-8" standalone="no"?>
<!-- Created with Inkscape (http://www.inkscape.org/) -->

<svg
   width="512"
   height="512"
   viewBox="0 0 512 512"
   version="1.1"
   id="svg1"
   xml:space="preserve"
   xmlns="http://www.w3.org/2000/svg"
   xmlns:svg="http://www.w3.org/2000/svg"><defs
     id="defs1" /><path
     id="path1"
     style="display:inline;stroke-width:19.4866"
     d="M 101.11719,25.041016 V 63.625 H 416.05078 V 25.041016 Z m 0,77.167964 A 39.366667,38.583333 0 0 0 61.75,140.79102 v 231.5 a 39.366667,38.583333 0 0 0 39.36719,38.58398 h 314.93359 a 39.366667,38.583333 0 0 0 39.36524,-38.58398 v -231.5 a 39.366667,38.583333 0 0 0 -39.36524,-38.58204 z m 238.33984,50.75 h 67.26953 a 16.144546,16.144546 0 0 1 16.11719,15.19727 l 0.0273,0.94727 v 75.34179 a 5.3815154,5.3815154 0 0 1 -7.56054,4.91797 L 414.66406,249.0293 400,240 l -14.66992,9.0293 a 5.3815154,5.3815154 0 0 1 -5.04883,0.3125 l -0.5918,-0.3125 -14.66992,-9.0293 -14.66992,9.0293 a 5.3815154,5.3815154 0 0 1 -8.16406,-3.9375 l -0.0371,-0.64649 v -32.28906 h -10.76367 a 5.3815154,5.3815154 0 0 1 -5.34375,-4.75195 l -0.0371,-0.62891 v -40.36133 a 13.453788,13.453788 0 0 1 12.57226,-13.42773 z m -80.87305,2.30079 a 44.287501,43.40625 0 0 1 44.28711,43.40625 44.287501,43.40625 0 0 1 -44.28711,43.40625 44.287501,43.40625 0 0 1 -44.28906,-43.40625 44.287501,43.40625 0 0 1 44.28906,-43.40625 z m 80.87305,8.46289 a 2.6907577,2.6907577 0 0 0 -2.68945,2.6914 v 34.97852 h 5.38086 v -34.97852 a 2.6907577,2.6907577 0 0 0 -2.69141,-2.6914 z m 29.59961,16.14453 a 5.3815154,5.3815154 0 0 0 -0.63086,10.72461 l 0.63086,0.0391 h 26.9082 a 5.3815154,5.3815154 0 0 0 0.62891,-10.72656 l -0.62891,-0.0371 z m 0,21.52539 a 5.3818359,5.3818359 0 1 0 0,10.76367 h 21.52539 a 5.3818359,5.3818359 0 1 0 0,-10.76367 z m -110.47266,74.4414 C 291.45511,275.83398 357,291.84545 357,324.0625 V 353 H 160.16602 v -28.9375 c 0,-32.21705 65.54683,-48.22852 98.41796,-48.22852 z m -157.46679,173.625 v 38.58204 h 314.93359 v -38.58204 z" /></svg>
