<?xml version="1.0" encoding="UTF-8" standalone="no"?>
<!-- Created with Inkscape (http://www.inkscape.org/) -->

<svg
   width="512"
   height="512"
   viewBox="0 0 512 512"
   version="1.1"
   id="svg1"
   sodipodi:docname="decoiler_5t.svg"
   inkscape:version="1.3.2 (091e20e, 2023-11-25)"
   xmlns:inkscape="http://www.inkscape.org/namespaces/inkscape"
   xmlns:sodipodi="http://sodipodi.sourceforge.net/DTD/sodipodi-0.dtd"
   xmlns="http://www.w3.org/2000/svg"
   xmlns:svg="http://www.w3.org/2000/svg">
  <sodipodi:namedview
     id="namedview1"
     pagecolor="#505050"
     bordercolor="#eeeeee"
     borderopacity="1"
     inkscape:showpageshadow="0"
     inkscape:pageopacity="0"
     inkscape:pagecheckerboard="0"
     inkscape:deskcolor="#505050"
     inkscape:zoom="1.6847696"
     inkscape:cx="255.52455"
     inkscape:cy="246.32448"
     inkscape:window-width="1904"
     inkscape:window-height="1089"
     inkscape:window-x="0"
     inkscape:window-y="25"
     inkscape:window-maximized="0"
     inkscape:current-layer="svg1" />
  <defs
     id="defs1" />
  <path
     id="path7"
     style="color:#000000;display:inline;fill:#000000;stroke-width:0.947234;stroke-linecap:round;stroke-linejoin:round;-inkscape-stroke:none;paint-order:stroke markers fill"
     d="m 227.60283,29.160337 c -0.67694,-8e-5 -1.30249,0.36101 -1.64099,0.947235 L 31.011091,367.77243 c -0.166771,0.28912 -0.254207,0.61716 -0.253459,0.95093 l 0.194257,107.68497 c 0.0022,1.04624 0.851927,1.8927 1.898167,1.89076 L 478.10923,477.3241 c 1.04696,-0.002 1.89373,-0.85306 1.89076,-1.90002 l -0.34966,-110.83191 c -8.7e-4,-0.33064 -0.0883,-0.65529 -0.25346,-0.94169 L 286.84197,30.135322 c -0.33851,-0.586234 -0.96407,-0.947324 -1.64102,-0.947233 z M 187.74327,176.21634 h 136.54629 v 33.56877 H 228.8492 l -3.70707,57.1852 c 10.96237,-9.63773 24.66745,-14.45909 41.11103,-14.45909 14.40153,0 26.92296,3.05352 37.56293,9.15744 10.74741,5.99681 19.02297,14.56639 24.82659,25.70337 5.91108,11.13693 8.8652,24.41395 8.8652,39.8343 0,23.98728 -7.52419,43.10179 -22.57059,57.34421 -14.93891,14.13536 -35.46826,21.20161 -61.58451,21.20161 -22.78454,0 -41.0546,-5.08584 -54.81132,-15.25898 -13.64925,-10.28029 -22.08432,-25.11253 -25.30855,-44.4951 l 45.30009,-3.69169 c 2.36442,9.63772 6.55877,16.65207 12.57736,21.04263 6.01854,4.39049 13.59418,6.58347 22.72953,6.58347 11.28479,0 20.26026,-3.58751 26.92369,-10.76229 6.77087,-7.17476 10.15211,-17.50706 10.15211,-30.99992 0,-11.88656 -3.17023,-21.36343 -9.51122,-28.4311 -6.341,-7.17475 -15.2084,-10.76232 -26.60067,-10.76232 -6.2335,0 -11.9255,1.22875 -17.08431,3.69169 -5.15872,2.35592 -9.72882,6.00048 -13.70539,10.9264 H 179.84206 Z M 55.326513,385.03354 h 68.707767 c 0.0946,0 0.10208,0.0184 0.18315,0.0296 V 454.078 c -0.0811,0.0113 -0.0886,0.0295 -0.18315,0.0295 H 55.326513 c -0.0946,0 -0.102073,-0.0184 -0.183158,-0.0295 v -69.01488 c 0.08109,-0.0113 0.08856,-0.0296 0.183158,-0.0296 z m 330.817767,0 h 68.70775 c 0.0954,0 0.10326,0.02 0.185,0.0315 v 69.01117 c -0.0817,0.0115 -0.0895,0.0315 -0.185,0.0315 h -68.70775 c -0.0946,0 -0.10207,-0.0184 -0.18315,-0.0296 v -69.01487 c 0.0811,-0.0113 0.0886,-0.0296 0.18315,-0.0296 z"
     sodipodi:nodetypes="ccccccccccccccccccsccscscccsscscscccccsccssccsccsccsscccc" />
</svg>
