<?xml version="1.0" encoding="UTF-8" standalone="no"?>
<!-- Created with Inkscape (http://www.inkscape.org/) -->

<svg
   width="512"
   height="512"
   viewBox="0 0 512 512"
   version="1.1"
   id="svg1"
   sodipodi:docname="decoiler_1-5t.svg"
   inkscape:version="1.3.2 (091e20e, 2023-11-25)"
   xmlns:inkscape="http://www.inkscape.org/namespaces/inkscape"
   xmlns:sodipodi="http://sodipodi.sourceforge.net/DTD/sodipodi-0.dtd"
   xmlns="http://www.w3.org/2000/svg"
   xmlns:svg="http://www.w3.org/2000/svg">
  <sodipodi:namedview
     id="namedview1"
     pagecolor="#505050"
     bordercolor="#eeeeee"
     borderopacity="1"
     inkscape:showpageshadow="0"
     inkscape:pageopacity="0"
     inkscape:pagecheckerboard="0"
     inkscape:deskcolor="#505050"
     inkscape:zoom="1.9380553"
     inkscape:cx="226.77372"
     inkscape:cy="235.80339"
     inkscape:window-width="1920"
     inkscape:window-height="1043"
     inkscape:window-x="0"
     inkscape:window-y="25"
     inkscape:window-maximized="0"
     inkscape:current-layer="svg1" />
  <defs
     id="defs1" />
  <path
     id="path5"
     style="color:#000000;display:inline;fill:#000000;stroke-width:0.947234;stroke-linecap:round;stroke-linejoin:round;-inkscape-stroke:none;paint-order:stroke markers fill"
     d="m 227.60283,29.160337 c -0.67694,-8e-5 -1.30249,0.36101 -1.64099,0.947235 L 31.011091,367.77243 c -0.166771,0.28912 -0.254207,0.61716 -0.253459,0.95093 l 0.194257,107.68497 c 0.0022,1.04624 0.851927,1.8927 1.898167,1.89076 L 478.10923,477.3241 c 1.04696,-0.002 1.89373,-0.85306 1.89076,-1.90002 l -0.34966,-110.83191 c -8.7e-4,-0.33064 -0.0883,-0.65529 -0.25346,-0.94169 L 286.84197,30.135322 c -0.33851,-0.586234 -0.96407,-0.947324 -1.64102,-0.947233 z M 166.69097,236.11522 h 25.1924 v 113.23552 h 30.58823 v 19.72082 h -90.25113 v -19.72082 h 33.05105 V 258.6689 l -32.01072,19.90889 v -20.85217 z m 129.5563,0 h 80.21482 v 19.72082 h -56.06576 l -2.17772,33.59395 c 6.43989,-5.66171 14.48925,-8.49251 24.14908,-8.49251 8.46023,0 15.8149,1.7918 22.06537,5.37759 6.31359,3.52284 11.17653,8.55601 14.58587,15.09848 3.47249,6.54242 5.20774,14.34417 5.20774,23.40293 0,14.09139 -4.41836,25.32122 -13.25743,33.68798 -8.7759,8.30387 -20.83602,12.45364 -36.17811,12.45364 -13.38483,0 -24.11732,-2.98636 -32.19874,-8.96261 -8.01827,-6.03917 -12.97387,-14.75241 -14.86796,-26.13875 l 26.61188,-2.17166 c 1.38902,5.66171 3.84984,9.78345 7.38547,12.36268 3.53562,2.57923 7.9879,3.87016 13.35446,3.87016 6.62931,0 11.89983,-2.10905 15.81428,-6.3239 3.97757,-4.21484 5.96598,-10.28394 5.96598,-18.21036 0,-6.98279 -1.86182,-12.551 -5.58684,-16.70295 -3.72502,-4.21483 -8.93379,-6.32391 -15.62624,-6.32391 -3.66189,0 -7.00883,0.72479 -10.03935,2.17168 -3.03055,1.38395 -5.71367,3.5211 -8.04968,6.41487 H 291.60672 Z M 241.0338,340.29105 h 27.37017 v 28.78051 H 241.0338 Z M 55.326513,385.03354 h 68.707767 c 0.0946,0 0.10208,0.0184 0.18315,0.0296 V 454.078 c -0.0811,0.0113 -0.0886,0.0295 -0.18315,0.0295 H 55.326513 c -0.0946,0 -0.102073,-0.0184 -0.183158,-0.0295 v -69.01488 c 0.08109,-0.0113 0.08856,-0.0296 0.183158,-0.0296 z m 330.817767,0 h 68.70775 c 0.0954,0 0.10326,0.02 0.185,0.0315 v 69.01117 c -0.0817,0.0115 -0.0895,0.0315 -0.185,0.0315 h -68.70775 c -0.0946,0 -0.10207,-0.0184 -0.18315,-0.0296 v -69.01487 c 0.0811,-0.0113 0.0886,-0.0296 0.18315,-0.0296 z"
     sodipodi:nodetypes="ccccccccccccccccccccccccccccccsccscscccsscscsccccccccccsccssccsccsccsscccc" />
</svg>
