<?xml version="1.0" encoding="UTF-8" standalone="no"?>
<!-- Created with Inkscape (http://www.inkscape.org/) -->

<svg
   width="512"
   height="512"
   viewBox="0 0 512 512"
   version="1.1"
   id="svg1"
   sodipodi:docname="decoiler_1-5t copy.svg"
   inkscape:version="1.3.2 (091e20e, 2023-11-25)"
   xml:space="preserve"
   xmlns:inkscape="http://www.inkscape.org/namespaces/inkscape"
   xmlns:sodipodi="http://sodipodi.sourceforge.net/DTD/sodipodi-0.dtd"
   xmlns="http://www.w3.org/2000/svg"
   xmlns:svg="http://www.w3.org/2000/svg"><sodipodi:namedview
     id="namedview1"
     pagecolor="#505050"
     bordercolor="#eeeeee"
     borderopacity="1"
     inkscape:showpageshadow="0"
     inkscape:pageopacity="0"
     inkscape:pagecheckerboard="0"
     inkscape:deskcolor="#505050"
     inkscape:zoom="0.80276879"
     inkscape:cx="-9.9655095"
     inkscape:cy="474.60739"
     inkscape:window-width="1920"
     inkscape:window-height="1043"
     inkscape:window-x="0"
     inkscape:window-y="25"
     inkscape:window-maximized="0"
     inkscape:current-layer="svg1" /><defs
     id="defs1"><style
       id="style1">.cls-1{fill:#897a69;}</style></defs><path
     id="path5"
     style="color:#000000;display:inline;fill:#000000;stroke-width:0.947234;stroke-linecap:round;stroke-linejoin:round;-inkscape-stroke:none;paint-order:stroke markers fill"
     d="m 227.60283,29.160337 c -0.67694,-8e-5 -1.30249,0.36101 -1.64099,0.947235 L 31.011091,367.77243 c -0.166771,0.28912 -0.254207,0.61716 -0.253459,0.95093 l 0.194257,107.68497 c 0.0022,1.04624 0.851927,1.8927 1.898167,1.89076 L 478.10923,477.3241 c 1.04696,-0.002 1.89373,-0.85306 1.89076,-1.90002 l -0.34966,-110.83191 c -8.7e-4,-0.33064 -0.0883,-0.65529 -0.25346,-0.94169 L 286.84197,30.135322 c -0.33851,-0.586234 -0.96407,-0.947324 -1.64102,-0.947233 z M 55.326513,385.03354 h 68.707767 c 0.0946,0 0.10208,0.0184 0.18315,0.0296 V 454.078 c -0.0811,0.0113 -0.0886,0.0295 -0.18315,0.0295 H 55.326513 c -0.0946,0 -0.102073,-0.0184 -0.183158,-0.0295 v -69.01488 c 0.08109,-0.0113 0.08856,-0.0296 0.183158,-0.0296 z m 330.817767,0 h 68.70775 c 0.0954,0 0.10326,0.02 0.185,0.0315 v 69.01117 c -0.0817,0.0115 -0.0895,0.0315 -0.185,0.0315 h -68.70775 c -0.0946,0 -0.10207,-0.0184 -0.18315,-0.0296 v -69.01487 c 0.0811,-0.0113 0.0886,-0.0296 0.18315,-0.0296 z M 262.19397,373.16007 160.98142,271.9475 h 74.97227 l 26.24028,26.2403 v 74.90872 z M 235.82661,256 H 160.85435 L 234.74651,182.10785 309.2105,182.5526 235.76307,256 Z m 42.31487,117.16007 v -74.90875 l 73.38386,-73.32032 0.44475,74.46397 -73.82861,73.82862 z"
     sodipodi:nodetypes="ccccccccccccccsccssccsccsccsscccccccccccccccccccccc" /></svg>
