<?xml version="1.0" encoding="UTF-8" standalone="no"?>
<!-- Created with Inkscape (http://www.inkscape.org/) -->

<svg width="449.24237" height="449.13876" viewBox="0 0 449.24237 449.13876" version="1.1" id="svg1"
   xmlns="http://www.w3.org/2000/svg" xmlns:svg="http://www.w3.org/2000/svg">
   <defs id="defs1" />
   <path id="path6"
      style="color:#000000;display:inline;fill:#000000;stroke-width:0.947234;stroke-linecap:round;stroke-linejoin:round;-inkscape-stroke:none;paint-order:stroke markers fill"
      d="M 196.8452,-4.4812012e-7 C 196.16826,-8.044812e-5 195.54271,0.36100955 195.20421,0.94723455 L 0.25346351,338.61209 c -0.166771,0.28912 -0.25420699718,0.61716 -0.2534589971826,0.95093 L 0.19426151,447.24799 c 0.0022,1.04624 0.85192699,1.8927 1.89816699,1.89076 L 447.3516,448.16376 c 1.04696,-0.002 1.89373,-0.85306 1.89076,-1.90002 L 448.8927,335.43183 c -8.7e-4,-0.33064 -0.0883,-0.65529 -0.25346,-0.94169 L 256.08434,0.97498455 c -0.33851,-0.586234 -0.96407,-0.947324 -1.64102,-0.947233 z M 223.94752,141.38546 c 24.8975,0 44.3293,5.61183 58.29892,16.83698 14.08231,11.11288 21.12873,26.54948 21.12873,46.30575 0,14.81719 -4.39647,26.99556 -13.18382,36.53698 -8.6747,9.54136 -21.23618,15.88037 -37.68427,19.02342 v 0.67648 c 18.25063,2.13278 32.27762,8.13871 42.07889,18.01684 9.91393,9.76587 14.87239,22.2828 14.87239,37.54897 0,22.22581 -7.32743,39.39986 -21.97301,51.52304 -14.64561,12.12314 -35.48775,18.18457 -62.52575,18.18457 -25.5735,0 -45.90334,-5.83933 -60.99955,-17.5135 -15.0962,-11.78641 -23.94428,-28.73836 -26.53543,-50.85188 l 48.32985,-4.20518 c 3.04183,22.78705 16.05505,34.17728 39.03736,34.17728 11.37847,0 20.22114,-2.80324 26.52999,-8.4158 6.30888,-5.61257 9.46571,-14.19959 9.46571,-25.76148 0,-10.55162 -3.82904,-18.63356 -11.48984,-24.24609 -7.66074,-5.61262 -19.04316,-8.42124 -34.1394,-8.42124 h -16.55554 v -38.22007 h 15.54349 c 13.63169,0 23.88467,-2.7531 30.75685,-8.25342 6.87216,-5.61259 10.30999,-13.58345 10.30999,-23.91058 0,-9.76591 -2.76023,-17.39819 -8.28044,-22.8985 -5.40762,-5.61257 -13.35215,-8.41578 -23.82941,-8.41578 -9.8013,0 -17.7458,2.6922 -23.82937,8.08024 -5.97092,5.38807 -9.40334,13.02038 -10.30458,22.8985 l -47.4856,-3.36634 c 2.47847,-20.42977 10.98504,-36.42701 25.51797,-47.9889 14.5329,-11.56189 33.51293,-17.34029 56.94587,-17.34029 z M 24.568886,355.8732 h 68.707767 c 0.0946,0 0.10208,0.0184 0.18315,0.0296 v 69.01486 c -0.0811,0.0113 -0.0886,0.0295 -0.18315,0.0295 H 24.568886 c -0.0946,0 -0.102073,-0.0184 -0.183158,-0.0295 v -69.01488 c 0.08109,-0.0113 0.08856,-0.0296 0.183158,-0.0296 z m 330.817764,0 h 68.70775 c 0.0954,0 0.10326,0.02 0.185,0.0315 v 69.01117 c -0.0817,0.0115 -0.0895,0.0315 -0.185,0.0315 h -68.70775 c -0.0946,0 -0.10207,-0.0184 -0.18315,-0.0296 V 355.9029 c 0.0811,-0.0113 0.0886,-0.0296 0.18315,-0.0296 z" />
</svg>