<?xml version="1.0" encoding="UTF-8" standalone="no"?>
<!-- Created with Inkscape (http://www.inkscape.org/) -->

<svg
   width="512"
   height="512"
   viewBox="0 0 512 512"
   version="1.1"
   id="svg1"
   sodipodi:docname="decoiler_6t.svg"
   inkscape:version="1.3.2 (091e20e, 2023-11-25)"
   xmlns:inkscape="http://www.inkscape.org/namespaces/inkscape"
   xmlns:sodipodi="http://sodipodi.sourceforge.net/DTD/sodipodi-0.dtd"
   xmlns="http://www.w3.org/2000/svg"
   xmlns:svg="http://www.w3.org/2000/svg">
  <sodipodi:namedview
     id="namedview1"
     pagecolor="#505050"
     bordercolor="#eeeeee"
     borderopacity="1"
     inkscape:showpageshadow="0"
     inkscape:pageopacity="0"
     inkscape:pagecheckerboard="0"
     inkscape:deskcolor="#505050"
     inkscape:zoom="1.8621848"
     inkscape:cx="281.1214"
     inkscape:cy="261.52077"
     inkscape:window-width="1888"
     inkscape:window-height="983"
     inkscape:window-x="501"
     inkscape:window-y="162"
     inkscape:window-maximized="0"
     inkscape:current-layer="svg1" />
  <defs
     id="defs1" />
  <path
     id="path8"
     style="color:#000000;display:inline;fill:#000000;stroke-width:0.947234;stroke-linecap:round;stroke-linejoin:round;-inkscape-stroke:none;paint-order:stroke markers fill"
     d="m 227.60283,29.160337 c -0.67694,-8e-5 -1.30249,0.36101 -1.64099,0.947235 L 31.011091,367.77243 c -0.166771,0.28912 -0.254207,0.61716 -0.253459,0.95093 l 0.194257,107.68497 c 0.0022,1.04624 0.851927,1.8927 1.898167,1.89076 L 478.10923,477.3241 c 1.04696,-0.002 1.89373,-0.85306 1.89076,-1.90002 l -0.34966,-110.83191 c -8.7e-4,-0.33064 -0.0883,-0.65529 -0.25346,-0.94169 L 286.84197,30.135322 c -0.33851,-0.586234 -0.96407,-0.947324 -1.64102,-0.947233 z m 29.50253,125.223133 c 18.80614,0 33.61888,4.13604 44.44027,12.40595 10.92651,8.26994 18.64884,21.09215 23.16651,38.46952 l -41.76023,5.80927 c -3.8873,-14.55089 -12.8221,-21.82393 -26.7954,-21.82393 -11.87207,0 -21.22315,5.91164 -28.05216,17.74076 -6.724,11.82918 -10.08426,29.78126 -10.08426,53.85832 4.7278,-7.85122 11.29412,-13.86636 19.69909,-18.05369 8.40501,-4.18734 17.91531,-6.28374 28.52658,-6.28374 19.8568,0 35.56349,6.27913 47.12035,18.84104 11.55687,12.56198 17.33198,29.62876 17.33198,51.19344 0,23.55366 -6.61769,42.02859 -19.85556,55.42802 C 297.60465,375.36782 279.32386,382.0662 256,382.0662 c -26.16049,0 -46.28067,-9.10544 -60.35907,-27.32031 -13.97329,-18.31949 -20.96086,-45.43384 -20.96086,-81.34012 0,-39.46546 7.09543,-69.14229 21.27888,-89.03202 14.28848,-19.99444 34.6707,-29.99028 61.14641,-29.99028 z m -3.62384,114.62622 c -9.77085,0 -17.60102,3.14211 -23.48452,9.42307 -5.88348,6.17631 -8.82243,14.39144 -8.82243,24.65033 0,8.58402 1.36159,16.22963 4.09326,22.9293 2.83665,6.69973 6.77745,11.98493 11.82045,15.85823 5.04301,3.87322 10.87455,5.80924 17.49349,5.80924 9.98094,0 17.75467,-3.50956 23.32297,-10.52334 5.56827,-7.11841 8.35306,-16.90208 8.35306,-29.35936 0,-12.56194 -2.93896,-22.14352 -8.82244,-28.73855 -5.77845,-6.69967 -13.76283,-10.04892 -23.95384,-10.04892 z M 55.326513,385.03354 h 68.707767 c 0.0946,0 0.10208,0.0185 0.18315,0.0296 v 69.01487 c -0.0811,0.0113 -0.0886,0.0296 -0.18315,0.0296 H 55.326513 c -0.0946,0 -0.102073,-0.0185 -0.183158,-0.0296 v -69.01487 c 0.08109,-0.0113 0.08856,-0.0296 0.183158,-0.0296 z m 330.817767,0 h 68.70775 c 0.0954,0 0.10326,0.02 0.185,0.0315 v 69.01117 c -0.0817,0.0115 -0.0895,0.0315 -0.185,0.0315 h -68.70775 c -0.0946,0 -0.10207,-0.0185 -0.18315,-0.0296 v -69.01487 c 0.0811,-0.0113 0.0886,-0.0296 0.18315,-0.0296 z"
     sodipodi:nodetypes="cccccccccccccscccsccsssssscscsscscsscscsssccssccscsccsscccc" />
</svg>
