<svg xmlns="http://www.w3.org/2000/svg" xml:space="preserve" id="svg1" width="512" height="512" version="1.1">
    <defs id="defs1">
        <style id="style1">
            .cls-1 {
                fill: #897a69
            }
        </style>
    </defs>
    <path id="path20"
        d="M104.42 45.68c-28.25 0-47.2 9.97-58.5 22.84-11.3 12.87-15.04 27.92-15.04 38.7v271.33a55.16 55.16 0 0 0 55.16 55.16h391.9c1.07 0 1.94-.87 1.94-1.94V121.15c0-1.07-.87-1.93-1.94-1.93H111.2V52.45a6.77 6.77 0 0 0-6.78-6.77zM97.65 59.5v299.37c-7.7.09-17.47 1.46-27.53 5.27-9.15 3.48-18.49 9.23-25.51 17.96-.1-1.17-.18-2.36-.18-3.56V107.22c0-7.47 2.93-19.81 11.67-29.76C64 68.45 76.67 60.87 97.65 59.5Zm13.55 73.25h355.13v287.4H351.66V382.9h114.19V380H68.02a57.33 57.33 0 0 1 6.91-3.18c11.26-4.27 23.58-4.78 28.66-4.15 4.04.5 7.6-2.65 7.6-6.72zm235.14 19.84v5.8h59.51v-5.8zm68.22 7.26V202.92h5.8v-37.25h33.39v34.35h-25.16v28.57l-16.45 12.8V203.4c0-1.6-1.3-2.9-2.9-2.9h-10.65v-35.32h-2.9v35.32H267.02l-7.84-25.1-2.77.86 7.57 24.24H143.56v5.8h122.23l12.13 38.88a11.58 11.58 0 0 0 1.65 23.06c6.41 0 11.61-5.2 11.61-11.62 0-5.93-4.47-10.77-10.22-11.47l-12.13-38.84H395.7v30h-2.9c-1.07 0-1.94.86-1.94 1.93v14.51h-5.8v12.58h18.38v-27.09c0-1.07-.86-1.94-1.93-1.94h-2.9v-30h7.73v64.84H181.84v-15.48h-39.68v5.8h33.87v9.68H152.6v5.8h120.2v29.04h-7.74v-14.52a4.84 4.84 0 0 0-4.83-4.84H235.06v-.67l-3.2.67h-2.6c-1.4 0-2.65.5-3.64 1.32l-12.45 2.61-2.3.5V305.85l.52.12h-13.1v-24.5c0-1.6-1.3-2.9-2.9-2.9H149.9a2.9 2.9 0 0 0-2.9 2.9v24.5h-8.7V191.3h-5.81V230.4l-.06.04-11.13 6.77-1.4.85v35.01h12.59v35.8c0 1.61 1.3 2.91 2.9 2.91h1.93v10.16h2.9v-10.16h191.59l-.55.53 43.07 44.51c.27.28.65.44 1.04.44h19.35v-2.9h-18.74l-41.18-42.58h70.57v10.16h2.9v-10.16h.97c1.6 0 2.9-1.3 2.9-2.9v-60.14l21.14-16.43 1.12-.88v-25.61h25.15V159.86H417.46zm-197.89 2.9v5.8h52.74v-5.8zm-49.4 70.33a6.19 6.19 0 0 0-2.84.75c-2.13 1.17-3.48 3.03-4.77 5.08a41.97 41.97 0 0 0-3.1 6.1h-7.67v5.8h30.04v-5.8h-4.07c-.68-4.34-1.55-7.28-3.09-9.38-.83-1.14-2-2.1-3.44-2.42a4.86 4.86 0 0 0-1.06-.13zm-36.23 5v29.18h-5.33v-25.95zm36.05.99c.46.63 1.24 2.63 1.86 5.93h-6.01c.51-1.05 1.06-2.09 1.64-3a11 11 0 0 1 2.51-2.93zm28.3 5.93a11.61 11.61 0 1 0 0 23.23 11.61 11.61 0 0 0 0-23.23zm28.06 0a11.61 11.61 0 1 0 0 23.23 11.61 11.61 0 0 0 0-23.23zm28.06 0a11.61 11.61 0 1 0 0 23.23 11.61 11.61 0 0 0 0-23.23zm56.12 0a11.61 11.61 0 1 0 0 23.23 11.61 11.61 0 0 0 0-23.23zm28.07 0a11.61 11.61 0 1 0 0 23.23 11.61 11.61 0 0 0 0-23.23zm28.06 0a11.61 11.61 0 1 0 0 23.23 11.61 11.61 0 0 0 0-23.23zm-168.38 5.8a5.8 5.8 0 1 1 0 11.62 5.8 5.8 0 0 1 0-11.61zm28.07 0a5.8 5.8 0 1 1 0 11.62 5.8 5.8 0 0 1 0-11.61zm28.06 0a5.8 5.8 0 1 1 0 11.62 5.8 5.8 0 0 1 0-11.61zm28.06 0 .12.02.43 1.39 2.19-.68a5.78 5.78 0 0 1-2.74 10.9 5.8 5.8 0 0 1 0-11.62zm28.06 0a5.8 5.8 0 1 1 0 11.62 5.8 5.8 0 0 1 0-11.61zm28.07 0a5.8 5.8 0 1 1 0 11.62 5.8 5.8 0 0 1 0-11.61zm28.06 0a5.8 5.8 0 1 1 0 11.62 5.8 5.8 0 0 1 0-11.61zm-85.16 26.14h46.94v27.66h5.8v-27.66h44.03V305H278.6zm102.57 0h25.16v29.03h-25.16zm-228.36 7.43h39.67v20.63h-39.67zm82.25 8.05h9.67V305h-9.67zm15.48 0h.97V305h-.97zm6.77 0h1.94V305h-1.94zm-33.86 1.9v8.54l-6.78-1.6v-5.52zm177.08 46v5.8h54.19v-5.8zm0 11.13v5.8h39.67v-5.8zM63.28 382.9h124.85v37.26H86.03a41.56 41.56 0 0 1-35.98-20.79c-.37.89-.82 1.7-1.14 2.64a37.61 37.61 0 0 1 14.37-19.1zm127.75 0h157.73v37.26H191.03Zm254.94 7.26-10.6 11 .56.54h8.65l10.65-10.65.26-.33zm-241.4.97v5.8h23.23v-5.8zm43.55.48v5.81h89.03v-5.8zm115.64.49v5.8h23.22v-5.8zm36.77 0v5.8h18.38v-5.8zm-362.62.97-.22.48.22-.48zm419.46 4.05-8.2 8.2v8.24l9.05-9.05zm-20.45 5.55 11.28 10.96v-7.58l-3.39-3.38zm-223.15 4.43v5.8h7.26v-5.8zm148.05.48v5.8h43.55v-5.8z"
        style="fill:#000;stroke-width:.967661" />
</svg>