<?xml version="1.0" encoding="UTF-8" standalone="no"?>
<!-- Created with Inkscape (http://www.inkscape.org/) -->

<svg
   width="512"
   height="512"
   viewBox="0 0 512 512"
   version="1.1"
   id="svg1"
   sodipodi:docname="frama-3200.svg"
   inkscape:version="1.3.2 (091e20e, 2023-11-25)"
   inkscape:export-filename="frama-def-1.svg"
   inkscape:export-xdpi="96"
   inkscape:export-ydpi="96"
   xmlns:inkscape="http://www.inkscape.org/namespaces/inkscape"
   xmlns:sodipodi="http://sodipodi.sourceforge.net/DTD/sodipodi-0.dtd"
   xmlns="http://www.w3.org/2000/svg"
   xmlns:svg="http://www.w3.org/2000/svg">
  <sodipodi:namedview
     id="namedview1"
     pagecolor="#505050"
     bordercolor="#eeeeee"
     borderopacity="1"
     inkscape:showpageshadow="0"
     inkscape:pageopacity="0"
     inkscape:pagecheckerboard="0"
     inkscape:deskcolor="#505050"
     inkscape:zoom="1.1787125"
     inkscape:cx="218.03451"
     inkscape:cy="348.68553"
     inkscape:window-width="1920"
     inkscape:window-height="1043"
     inkscape:window-x="0"
     inkscape:window-y="25"
     inkscape:window-maximized="0"
     inkscape:current-layer="svg1"
     showgrid="false"
     showguides="true">
    <inkscape:grid
       id="grid1"
       units="px"
       originx="0"
       originy="0"
       spacingx="1"
       spacingy="1"
       empcolor="#0099e5"
       empopacity="0.30196078"
       color="#0099e5"
       opacity="0.14901961"
       empspacing="5"
       dotted="false"
       gridanglex="30"
       gridanglez="30"
       visible="false" />
    <sodipodi:guide
       position="30,142"
       orientation="1,0"
       id="guide1"
       inkscape:locked="false" />
    <sodipodi:guide
       position="260,482"
       orientation="0,-1"
       id="guide2"
       inkscape:locked="false" />
    <sodipodi:guide
       position="480,232"
       orientation="1,0"
       id="guide3"
       inkscape:locked="false" />
    <sodipodi:guide
       position="420,32"
       orientation="0,-1"
       id="guide4"
       inkscape:locked="false" />
  </sodipodi:namedview>
  <defs
     id="defs1" />
  <path
     id="path7"
     style="color:#000000;fill:#1d1d1d;stroke-linecap:round;stroke-linejoin:round;-inkscape-stroke:none;paint-order:stroke markers fill;stroke:none;stroke-opacity:1;fill-opacity:1"
     d="M 304.57617 63.4375 C 303.96803 63.51748 303.34597 63.693857 302.70898 63.945312 L 32.339844 170.67773 C 31.524786 170.99949 30.5974 171.35756 29.707031 172.07031 C 28.816662 172.78307 28 174.08187 28 175.51953 L 28 395.01367 C 28 397.78231 30.350183 400 33.097656 400 L 303.4668 400 C 305.90129 400 307.32148 398.30034 308.28125 397.02148 C 309.24102 395.74265 309.80859 394.49805 309.80859 394.49805 A 2.0644164 2.0644164 0 0 0 310 393.63086 L 310 70.171875 C 310 68.872906 310.0391 67.124897 308.99609 65.433594 C 308.47458 64.587942 307.52351 63.779104 306.35938 63.509766 C 305.77731 63.375095 305.18431 63.357525 304.57617 63.4375 z M 264.35547 270.28711 C 273.58252 269.87388 280.33248 273.05509 284.60938 279.72852 C 288.88626 286.40195 291.02244 296.5986 291.00195 310.86328 C 290.98175 324.8922 288.68708 335.96689 284.13281 343.58008 C 279.61542 351.19322 272.83834 355.12834 263.79688 355.48828 C 254.86613 355.84381 248.17403 352.50774 243.72266 345.41016 C 239.27138 338.27142 237.06089 327.37879 237.08008 313.20703 C 237.09978 298.68294 239.22793 288.25551 243.47656 281.35938 C 247.76214 274.45999 254.72244 270.71853 264.35547 270.28711 z M 204.5625 276.51953 C 212.11386 276.11105 217.76626 278.57907 221.51953 283.94531 C 225.80901 290.07816 227.95035 299.97955 227.93164 314.16797 C 227.91324 328.12186 225.61678 339.38607 221.05273 347.41992 C 216.52566 355.44955 209.73259 360.03874 200.67188 361.22656 C 191.72211 362.39984 185.01604 359.6549 180.55273 353.07031 C 176.0895 346.44564 173.86869 335.9912 173.88281 322.03711 C 173.89731 307.7361 176.02653 297.18921 180.2832 289.94727 C 184.57689 282.69906 191.5538 278.33659 201.21094 276.86914 C 202.3672 276.69344 203.48373 276.57789 204.5625 276.51953 z M 264.24805 282.35352 C 261.11082 282.49515 258.69103 283.52078 256.99219 285.41211 C 255.33029 287.26395 254.18527 290.28943 253.55469 294.54492 C 252.96107 298.75998 252.66077 304.50341 252.65039 311.91797 C 252.63999 319.33253 252.94196 325.33401 253.56055 329.7793 C 254.21613 334.18183 255.35474 337.32205 256.97461 339.1582 C 258.63139 340.99231 260.95403 341.84075 263.94336 341.7168 C 268.372 341.53317 271.38354 339.05971 272.98047 334.28711 C 274.5774 329.51449 275.38896 321.59806 275.4043 310.91016 C 275.415 303.44435 275.1067 297.70453 274.48242 293.54102 C 273.85816 289.33951 272.73431 286.41528 271.11133 284.71289 C 269.48835 283.0105 267.20073 282.22023 264.24805 282.35352 z M 146.08398 286.89453 C 150.43926 287.04872 154.0286 288.05743 156.85156 289.95312 C 161.36831 292.98625 163.62579 297.96987 163.62305 305.01953 C 163.62105 308.99435 162.80478 312.72876 161.17383 316.19922 C 159.54287 319.66968 157.46856 322.98515 154.94922 326.12695 C 152.87439 328.8113 150.5223 331.42818 147.89258 333.9707 C 145.29986 336.50725 142.7802 338.96924 140.33594 341.35352 C 137.74349 343.91503 135.37463 346.45333 133.22656 348.96875 C 131.11548 351.47878 129.54039 354.05663 128.50195 356.71484 L 164.79688 351.30078 L 164.77344 365.0918 L 110.07422 372.3457 L 110.08398 361.12305 C 111.45447 357.86526 113.19443 354.63632 115.30469 351.42383 C 117.41498 348.17308 119.93276 344.85808 122.85742 341.46875 C 125.8191 338.03603 129.18826 334.45158 132.96484 330.70898 C 135.70471 328.00198 138.0372 325.55901 139.96289 323.38867 C 141.8886 321.18039 143.38869 319.2474 144.46289 317.5957 C 145.57409 315.93788 146.40895 314.34729 146.96484 312.82422 C 147.52074 311.26352 147.79833 309.78978 147.79883 308.4043 C 147.79983 304.95933 146.93087 302.54374 145.19141 301.13086 C 143.48896 299.71173 140.9343 299.29289 137.5293 299.85156 C 134.19831 300.39808 131.64563 301.70847 129.86914 303.80469 C 128.12967 305.85801 126.99956 308.72209 126.48047 312.42383 L 110.77734 313.80273 C 111.6666 306.38748 114.36579 300.51516 118.87891 296.07227 C 123.42902 291.62396 129.60878 288.80926 137.41797 287.5332 C 140.58236 287.01612 143.47082 286.80202 146.08398 286.89453 z M 203.19727 288.8125 C 202.54054 288.80252 201.84158 288.85394 201.10156 288.9668 C 197.95648 289.44646 195.53276 290.71535 193.83008 292.77148 C 192.16443 294.78453 191.01613 297.91347 190.38477 302.20312 C 189.79043 306.44907 189.4906 312.17439 189.48242 319.49414 C 189.47442 326.8139 189.78053 332.68185 190.40234 336.98828 C 191.06121 341.24944 192.202 344.22391 193.82617 345.875 C 195.48734 347.52073 197.8145 348.13918 200.81055 347.72656 C 205.24913 347.11528 208.26983 344.36743 209.86914 339.49219 C 211.46846 334.61694 212.27781 326.71397 212.29102 316.11719 C 212.30002 308.71501 211.98966 303.04149 211.36328 298.96875 C 210.73691 294.85818 209.60981 292.07173 207.98242 290.55859 C 206.76189 289.42373 205.16744 288.84245 203.19727 288.8125 z M 76.998047 295.28711 C 83.748723 295.16768 89.129979 296.42662 93.140625 299.21094 C 97.76118 302.35224 100.07332 307.12587 100.07227 313.66016 C 100.07148 318.56087 98.628298 322.78787 95.744141 326.2793 C 92.896953 329.76667 88.774864 332.31191 83.380859 333.81836 L 83.380859 334.04297 C 89.365443 334.2408 93.965491 335.75468 97.179688 338.71875 C 100.43086 341.64123 102.05607 345.66455 102.05273 350.82227 C 102.04773 358.3313 99.63953 364.43885 94.833984 368.95703 C 90.028449 373.4752 83.196112 376.02978 74.337891 376.4375 C 65.959489 376.82314 59.30081 374.99581 54.359375 371.19922 C 49.417953 367.36564 46.523785 361.78483 45.675781 354.52148 L 61.5 352.85938 C 62.495029 360.36355 66.756167 364.04747 74.287109 363.63867 C 78.015656 363.43628 80.913374 362.30348 82.982422 360.27344 C 85.05147 358.2434 86.088114 355.27414 86.089844 351.40234 C 86.091844 347.86887 84.835376 345.27854 82.324219 343.60742 C 79.813071 341.93629 76.084924 341.32164 71.136719 341.58594 L 65.708984 341.875 L 65.710938 329.23633 L 70.806641 328.94531 C 75.275156 328.69026 78.634904 327.48974 80.888672 325.48047 C 83.14245 323.43402 84.271034 320.68706 84.271484 317.27539 C 84.271924 314.04915 83.366809 311.62036 81.556641 309.9668 C 79.783402 308.27309 77.178727 307.56936 73.744141 307.81445 C 70.531144 308.04373 67.927162 309.08516 65.933594 310.9668 C 63.976946 312.8464 62.85212 315.40867 62.556641 318.67578 L 47.005859 318.03711 C 47.817339 311.31202 50.60163 306.02833 55.361328 302.08008 C 60.121033 298.1318 66.339822 295.97221 74.021484 295.42383 C 75.041705 295.351 76.033665 295.30417 76.998047 295.28711 z " />
  <path
     id="path6"
     style="stroke:#000000;stroke-width:4.12842;stroke-linecap:round;stroke-linejoin:round;paint-order:stroke markers fill"
     d="M 325.20703 57.691406 C 323.42626 57.485887 321.94727 58.979822 321.94727 60.005859 L 321.94727 395.93555 C 321.94727 397.10816 323.74748 398.05273 325.98438 398.05273 L 477.25586 398.05273 C 478.77564 398.05273 480 397.277 480 396.3125 L 480 120 C 480 119.03549 478.76177 118.86075 477.25586 118.25977 L 325.98438 57.888672 C 325.72108 57.783596 325.46143 57.720766 325.20703 57.691406 z M 372.01367 108.44336 C 372.17117 108.45619 372.33289 108.49011 372.49609 108.54883 L 446.02148 135 C 448.039 135.72584 450 135.5827 450 136.30664 L 450 225 C 450 225.72394 448.17331 226.78388 446.02148 226.30664 L 372.49609 210 C 371.14615 209.7006 370 209.3532 370 208.54883 L 370 110 C 370 109.29618 370.91115 108.35353 372.01367 108.44336 z M 307.93555 229.07422 L 30.064453 283.19336 L 30.064453 394.625 C 30.064453 396.24365 31.417462 397.54687 33.097656 397.54688 L 303.4668 397.54688 C 305.9428 397.54688 307.93555 393.24023 307.93555 393.24023 L 307.93555 229.07422 z M 372.2793 260.92188 C 372.46438 260.91713 372.65771 260.92707 372.85352 260.95312 L 443.125 270.31055 C 444.69148 270.51917 448.99414 270.94932 448.99414 271.74219 L 448.99414 280 C 448.99414 280.79287 444.69148 281.64026 443.125 281.43164 L 372.85352 272.07227 C 371.28704 271.86365 370 271.43349 370 270.64062 L 370 262.38281 C 370 261.68905 370.98372 260.95504 372.2793 260.92188 z M 265.31641 269.7168 C 274.54346 269.30357 281.29537 272.48478 285.57227 279.1582 C 289.84915 285.83164 291.98338 296.02828 291.96289 310.29297 C 291.94269 324.32188 289.64997 335.39657 285.0957 343.00977 C 280.57831 350.62291 273.79927 354.55803 264.75781 354.91797 C 255.82707 355.2735 249.13497 351.93743 244.68359 344.83984 C 240.23232 337.70111 238.02183 326.80847 238.04102 312.63672 C 238.06072 298.11262 240.18886 287.68715 244.4375 280.79102 C 248.72308 273.89163 255.68338 270.14822 265.31641 269.7168 z M 205.52539 275.94922 C 213.07675 275.54074 218.72915 278.00875 222.48242 283.375 C 226.7719 289.50784 228.91324 299.41119 228.89453 313.59961 C 228.87613 327.55351 226.57772 338.81771 222.01367 346.85156 C 217.4866 354.88119 210.69352 359.46843 201.63281 360.65625 C 192.68305 361.82953 185.97698 359.08654 181.51367 352.50195 C 177.05044 345.87728 174.82963 335.42088 174.84375 321.4668 C 174.85825 307.16579 176.98942 296.62085 181.24609 289.37891 C 185.53978 282.1307 192.51473 277.76823 202.17188 276.30078 C 203.32814 276.12508 204.44663 276.00757 205.52539 275.94922 z M 265.20898 281.7832 C 262.07176 281.92483 259.65392 282.95047 257.95508 284.8418 C 256.29318 286.69364 255.1462 289.71911 254.51562 293.97461 C 253.92201 298.18967 253.62171 303.93309 253.61133 311.34766 C 253.60093 318.76222 253.90485 324.7637 254.52344 329.20898 C 255.17902 333.61152 256.31568 336.7537 257.93555 338.58984 C 259.59233 340.42395 261.91497 341.27239 264.9043 341.14844 C 269.33294 340.96481 272.34643 338.4894 273.94336 333.7168 C 275.54029 328.94418 276.34989 321.02774 276.36523 310.33984 C 276.37593 302.87404 276.06764 297.13422 275.44336 292.9707 C 274.8191 288.7692 273.69524 285.84692 272.07227 284.14453 C 270.44929 282.44214 268.16167 281.64991 265.20898 281.7832 z M 147.04492 286.32422 C 151.40019 286.47841 154.98953 287.48907 157.8125 289.38477 C 162.32925 292.41789 164.58868 297.40151 164.58594 304.45117 C 164.58394 308.42599 163.76767 312.1604 162.13672 315.63086 C 160.50576 319.10132 158.42949 322.41483 155.91016 325.55664 C 153.83533 328.24099 151.48323 330.85982 148.85352 333.40234 C 146.2608 335.93889 143.74309 338.40088 141.29883 340.78516 C 138.70638 343.34667 136.33557 345.88302 134.1875 348.39844 C 132.07642 350.90846 130.50133 353.48631 129.46289 356.14453 L 165.75781 350.73242 L 165.73438 364.52344 L 111.03516 371.77539 L 111.04688 360.55469 C 112.41736 357.2969 114.15732 354.06601 116.26758 350.85352 C 118.37787 347.60277 120.89566 344.28972 123.82031 340.90039 C 126.78199 337.46767 130.1492 333.88127 133.92578 330.13867 C 136.66565 327.43166 139.00009 324.9887 140.92578 322.81836 C 142.85149 320.61008 144.35158 318.67904 145.42578 317.02734 C 146.53698 315.36953 147.36989 313.77697 147.92578 312.25391 C 148.48168 310.69321 148.75927 309.21946 148.75977 307.83398 C 148.76077 304.38902 147.89181 301.97343 146.15234 300.56055 C 144.4499 299.14142 141.89719 298.72258 138.49219 299.28125 C 135.1612 299.82777 132.60657 301.14011 130.83008 303.23633 C 129.09061 305.28965 127.96245 308.15373 127.44336 311.85547 L 111.73828 313.23438 C 112.62754 305.81912 115.32868 299.9468 119.8418 295.50391 C 124.39191 291.0556 130.56971 288.2409 138.37891 286.96484 C 141.5433 286.44776 144.43176 286.23171 147.04492 286.32422 z M 204.1582 288.24219 C 203.50148 288.23221 202.80252 288.28362 202.0625 288.39648 C 198.91741 288.87614 196.49369 290.14699 194.79102 292.20312 C 193.12537 294.21617 191.97707 297.34316 191.3457 301.63281 C 190.75136 305.87876 190.45154 311.60408 190.44336 318.92383 C 190.43536 326.24359 190.74147 332.11153 191.36328 336.41797 C 192.02215 340.67912 193.16294 343.65555 194.78711 345.30664 C 196.44828 346.95237 198.77739 347.56887 201.77344 347.15625 C 206.21202 346.54497 209.23077 343.79712 210.83008 338.92188 C 212.4294 334.04663 213.23874 326.14365 213.25195 315.54688 C 213.26095 308.1447 212.95255 302.47117 212.32617 298.39844 C 211.6998 294.28787 210.57075 291.50337 208.94336 289.99023 C 207.72283 288.85537 206.12838 288.27213 204.1582 288.24219 z M 77.958984 294.71875 C 84.709664 294.59932 90.092872 295.85631 94.103516 298.64062 C 98.72407 301.78193 101.03425 306.55556 101.0332 313.08984 C 101.03241 317.99056 99.589235 322.21951 96.705078 325.71094 C 93.857887 329.19831 89.735806 331.74355 84.341797 333.25 L 84.341797 333.47461 C 90.326388 333.67244 94.928386 335.18632 98.142578 338.15039 C 101.39375 341.07287 103.01701 345.09619 103.01367 350.25391 C 103.00867 357.76294 100.60241 363.86853 95.796875 368.38672 C 90.991336 372.90488 84.15705 375.46142 75.298828 375.86914 C 66.920426 376.25478 60.263694 374.42746 55.322266 370.63086 C 50.380841 366.79728 47.486676 361.21451 46.638672 353.95117 L 62.462891 352.29102 C 63.457919 359.79519 67.71711 363.47716 75.248047 363.06836 C 78.976598 362.86597 81.876267 361.73316 83.945312 359.70312 C 86.014356 357.67309 87.049056 354.70383 87.050781 350.83203 C 87.052381 347.29855 85.798261 344.70823 83.287109 343.03711 C 80.775958 341.36598 77.045857 340.75133 72.097656 341.01562 L 66.671875 341.30664 L 66.673828 328.66797 L 71.767578 328.37695 C 76.236086 328.1219 79.597795 326.91942 81.851562 324.91016 C 84.105337 322.86371 85.231965 320.1187 85.232422 316.70703 C 85.232854 313.48079 84.327755 311.05004 82.517578 309.39648 C 80.744346 307.70278 78.139665 307.001 74.705078 307.24609 C 71.492077 307.47537 68.890052 308.51485 66.896484 310.39648 C 64.939832 312.27609 63.813062 314.83836 63.517578 318.10547 L 47.966797 317.4668 C 48.778276 310.7417 51.562563 305.45997 56.322266 301.51172 C 61.081968 297.56344 67.30076 295.4019 74.982422 294.85352 C 76.002643 294.78068 76.994602 294.73581 77.958984 294.71875 z " />
  <text
     xml:space="preserve"
     style="font-weight:bold;font-size:113.264px;font-family:Arimo;-inkscape-font-specification:'Arimo, Bold';font-variation-settings:normal;display:none;vector-effect:none;fill:#000000;fill-opacity:1;stroke:none;stroke-width:11.69;stroke-linecap:round;stroke-linejoin:round;stroke-miterlimit:4;stroke-dasharray:none;stroke-dashoffset:0;stroke-opacity:1;-inkscape-stroke:none;paint-order:stroke markers fill"
     x="59.400681"
     y="233.08571"
     id="text10-6"><tspan
       sodipodi:role="line"
       id="tspan10-3"
       x="0"
       y="0"
       style="fill:#ffffff;fill-opacity:1;stroke-width:11.69">3200</tspan></text>
</svg>
