<?xml version="1.0" encoding="UTF-8" standalone="no"?>
<!-- Created with Inkscape (http://www.inkscape.org/) -->

<svg
   width="512"
   height="512"
   viewBox="0 0 512 512"
   version="1.1"
   id="svg1"
   xmlns="http://www.w3.org/2000/svg"
   xmlns:svg="http://www.w3.org/2000/svg">
  <defs
     id="defs1" />
  <path
     id="path7"
     style="color:#000000;fill:#1d1d1d;fill-opacity:1;stroke:none;stroke-linecap:round;stroke-linejoin:round;stroke-opacity:1;-inkscape-stroke:none;paint-order:stroke markers fill"
     d="m 304.57617,63.4375 c -0.60814,0.07998 -1.2302,0.256356 -1.86719,0.507812 L 32.339844,170.67773 c -0.815059,0.32176 -1.742443,0.67983 -2.632813,1.39258 C 28.816661,172.78307 28,174.08187 28,175.51953 V 395.01367 C 28,397.78231 30.35018,400 33.097656,400 H 303.4668 c 2.4345,0 3.85468,-1.69966 4.81445,-2.97852 0.95977,-1.27884 1.52734,-2.52343 1.52734,-2.52343 A 2.0644164,2.0644164 0 0 0 310,393.63086 V 70.171875 c 0,-1.29897 0.0391,-3.046976 -1.00391,-4.738281 -0.52151,-0.845653 -1.47257,-1.654489 -2.63671,-1.923828 -0.58207,-0.134671 -1.17507,-0.152241 -1.78321,-0.07227 z" />
  <path
     id="path6"
     style="stroke:#000000;stroke-width:4.12842;stroke-linecap:round;stroke-linejoin:round;paint-order:stroke markers fill"
     d="m 325.20703,57.691406 c -1.78077,-0.205519 -3.25976,1.288415 -3.25976,2.314453 V 395.93555 c 0,1.17261 1.80021,2.11718 4.03711,2.11718 h 151.27148 c 1.51978,0 2.74414,-0.77573 2.74414,-1.74023 V 120 c 0,-0.96451 -1.23823,-1.13925 -2.74414,-1.74023 L 325.98438,57.888672 c -0.2633,-0.105076 -0.52295,-0.167906 -0.77735,-0.197266 z m 46.80664,50.751954 c 0.1575,0.0128 0.31922,0.0468 0.48242,0.10547 L 446.02148,135 C 448.039,135.72584 450,135.5827 450,136.30664 V 225 c 0,0.72394 -1.82669,1.78388 -3.97852,1.30664 L 372.49609,210 C 371.14614,209.7006 370,209.3532 370,208.54883 V 110 c 0,-0.70382 0.91115,-1.64647 2.01367,-1.55664 z M 307.93555,229.07422 30.064453,283.19336 V 394.625 c 0,1.61865 1.353007,2.92188 3.033203,2.92188 H 303.4668 c 2.47601,0 4.46875,-4.30665 4.46875,-4.30665 z m 64.34375,31.84766 c 0.18508,-0.005 0.37841,0.005 0.57422,0.0312 l 70.27148,9.35743 c 1.56648,0.20862 5.86914,0.63877 5.86914,1.43164 V 280 c 0,0.79287 -4.30266,1.64026 -5.86914,1.43164 l -70.27148,-9.35937 C 371.28704,271.86365 370,271.43349 370,270.64062 v -8.25781 c 0,-0.69376 0.98372,-1.42776 2.2793,-1.46093 z" />
</svg>
