<?xml version="1.0" encoding="UTF-8" standalone="no"?>
<!-- Created with Inkscape (http://www.inkscape.org/) -->

<svg
   width="512"
   height="512"
   viewBox="0 0 512 512"
   version="1.1"
   id="svg1"
   xml:space="preserve"
   xmlns="http://www.w3.org/2000/svg"
   xmlns:svg="http://www.w3.org/2000/svg"><defs
     id="defs1"><style
       id="style1">.cls-1{fill:#897a69;}</style></defs><style
     id="style1-8">
		.s0 { opacity: 1;fill: #0084c9 }
		.s1 { opacity: .3;fill: none }
		.s2 { fill: none }
	</style><path
     id="path4127"
     class="s0"
     d="m 257.72852,30.650391 c -74.00068,0.363675 -140.0242,51.065307 -155.54102,124.304689 -2.780495,13.17955 -3.771754,26.30749 -3.138672,39.14453 -3.013677,83.75093 63.052302,160.9841 124.080082,242.10938 14.89614,18.44283 35.82271,39.01454 36.88671,41.14256 l 33.33789,-39.36913 C 369.6499,338.23428 481.18576,193.00698 381.84766,87.837889 359.29019,60.897152 327.40842,41.116406 289.80664,33.658203 279.03354,31.574516 268.30004,30.598437 257.72852,30.650391 Z M 260.49574,288.59612 159.28319,187.38354 h 74.97227 l 26.24028,26.24031 v 74.90871 z M 234.12838,171.43604 h -74.97226 l 73.89216,-73.89215 74.46399,0.44475 -73.44743,73.4474 z m 42.31487,117.16008 v -74.90876 l 73.38386,-73.32032 0.44475,74.46398 -73.82861,73.8286 z"
     style="display:inline;stroke-width:3.5467" /></svg>
