<?xml version="1.0" encoding="UTF-8" standalone="no"?>
<!-- Created with Inkscape (http://www.inkscape.org/) -->

<svg
   width="512"
   height="512"
   viewBox="0 0 512 512"
   version="1.1"
   id="svg1"
   xmlns="http://www.w3.org/2000/svg"
   xmlns:svg="http://www.w3.org/2000/svg">
  <defs
     id="defs1" />
  <path
     id="path7"
     style="color:#000000;fill:#1d1d1d;fill-opacity:1;stroke:none;stroke-linecap:round;stroke-linejoin:round;stroke-opacity:1;-inkscape-stroke:none;paint-order:stroke markers fill"
     d="m 304.57617,37.829847 c -0.60814,0.07998 -1.2302,0.256356 -1.86719,0.507812 L 32.339844,145.07008 c -0.815059,0.32176 -1.742443,0.67983 -2.632813,1.39258 C 28.816661,147.17542 28,148.47422 28,149.91188 v 219.49414 c 0,2.76864 2.35018,4.98633 5.097656,4.98633 H 303.4668 c 2.4345,0 3.85468,-1.69966 4.81445,-2.97852 0.95977,-1.27884 1.52734,-2.52343 1.52734,-2.52343 A 2.0644164,2.0644164 0 0 0 310,368.02321 V 44.564222 c 0,-1.29897 0.0391,-3.046976 -1.00391,-4.738281 -0.52151,-0.845653 -1.47257,-1.654489 -2.63671,-1.923828 -0.58207,-0.134671 -1.17507,-0.152241 -1.78321,-0.07227 z" />
  <path
     id="path6"
     style="stroke:#000000;stroke-width:4.12842;stroke-linecap:round;stroke-linejoin:round;paint-order:stroke markers fill"
     d="m 325.20703,32.083984 c -1.78077,-0.205518 -3.25976,1.288417 -3.25976,2.314454 V 370.32812 c 0,1.17261 1.80021,2.11719 4.03711,2.11719 h 151.27148 c 1.51978,0 2.74414,-0.77573 2.74414,-1.74023 V 94.392578 c 0,-0.964509 -1.23823,-1.139255 -2.74414,-1.740234 L 325.98438,32.28125 c -0.2633,-0.105076 -0.52295,-0.167906 -0.77735,-0.197266 z m 46.80664,50.751954 c 0.1575,0.01283 0.31922,0.04675 0.48242,0.105468 l 73.52539,26.451174 C 448.039,110.11842 450,109.97528 450,110.69922 v 88.69336 c 0,0.72394 -1.82669,1.78388 -3.97852,1.30664 L 372.49609,184.39258 C 371.14615,184.09318 370,183.74578 370,182.94141 V 84.392578 c 0,-0.703819 0.91115,-1.64647 2.01367,-1.55664 z M 307.93555,203.4668 30.064453,257.58594 v 111.43164 c 0,1.61865 1.353009,2.92187 3.033203,2.92187 H 303.4668 c 2.476,0 4.46875,-4.30664 4.46875,-4.30664 z m 64.34375,31.84765 c 0.18508,-0.005 0.37841,0.005 0.57422,0.0312 l 70.27148,9.35742 c 1.56648,0.20862 5.86914,0.63878 5.86914,1.43165 v 8.25781 c 0,0.79287 -4.30266,1.64026 -5.86914,1.43164 l -70.27148,-9.35938 C 371.28704,246.25626 370,245.82607 370,245.0332 v -8.25781 c 0,-0.69376 0.98372,-1.42777 2.2793,-1.46094 z M 240,380 v 24 l -140,12 v 24 H 33.476562 c -1.580303,0 -2.853515,0.63878 -2.853515,1.43164 v 37.13672 c 0,0.79286 1.273212,1.43164 2.853515,1.43164 H 179.91406 c 1.5803,0 2.85156,-0.63878 2.85156,-1.43164 v -37.13672 c 0,-0.79286 -1.27126,-1.43164 -2.85156,-1.43164 H 120 V 428 L 252.91992,413.61328 390,428 v 12 h -59.24609 c -1.58031,0 -2.85352,0.63878 -2.85352,1.43164 v 37.13672 c 0,0.79286 1.27321,1.43164 2.85352,1.43164 h 146.4375 c 1.58029,0 2.85156,-0.63878 2.85156,-1.43164 V 441.43164 C 480.04297,440.63878 478.7717,440 477.19141,440 H 410 V 416 L 260,404 v -24 z" />
</svg>
