<?xml version="1.0" encoding="UTF-8" standalone="no"?>
<svg
   width="498"
   height="463"
   viewBox="0 0 498 463"
   fill="none"
   version="1.1"
   id="svg2"
   xmlns="http://www.w3.org/2000/svg"
   xmlns:svg="http://www.w3.org/2000/svg">
  <defs
     id="defs2" />
  <path
     d="m 498,236.982 c 0,-3.533 -0.996,-6.522 -3.079,-9.149 -2.017,-2.612 -4.973,-4.335 -8.239,-4.801 l -49.71,-86.059 c 0.873,-2.164 1.131,-4.527 0.748,-6.828 -0.384,-2.302 -1.394,-4.453 -2.921,-6.217 -2.185,-2.413 -5.063,-4.09 -8.239,-4.801 L 379.929,37.4165 c 0.271,-1.4494 0.452,-2.7176 0.452,-3.9859 0,-3.7141 -1.358,-6.8847 -3.893,-9.5117 -2.556,-2.5815 -5.973,-4.1296 -9.598,-4.3483 -4.074,0 -7.425,1.4495 -10.05,4.3483 h -97.608 c -1.246,-1.5517 -2.835,-2.793 -4.642,-3.6261 -1.807,-0.8331 -3.782,-1.2354 -5.771,-1.1751 -4.346,0 -7.878,1.6306 -10.503,4.8012 h -96.703 c -2.897,-3.1706 -6.338,-4.8012 -10.503,-4.8012 -3.713,0 -6.972,1.2682 -9.507,3.8953 -2.717,2.6271 -4.075,5.9788 -4.437,9.9647 0,1.1777 0.362,2.8082 0.905,4.8012 L 71.4404,119.127 c -3.2665,0.467 -6.2224,2.189 -8.2397,4.801 -2.0825,2.627 -3.0785,5.436 -3.0785,8.697 0,1.449 0.2716,2.899 0.9054,4.348 l -50.1621,85.968 c -3.16914,0.906 -5.79495,2.627 -7.78695,5.254 C 0.996,230.822 0,233.631 0,236.892 c 0,3.17 1.17709,6.069 3.53127,8.696 2.26364,2.627 4.88946,4.167 7.78693,4.801 l 48.3513,83.432 v 1.45 c 0,5.797 2.7163,9.964 8.3301,12.591 l 50.5244,87.871 c -0.949,2.46 -1.119,5.153 -0.487,7.713 0.632,2.56 2.034,4.864 4.018,6.6 2.807,2.627 6.067,3.895 9.508,3.895 4.074,0 7.696,-1.812 10.865,-5.254 h 95.978 c 2.535,3.533 6.067,5.254 10.413,5.254 4.346,0 7.787,-1.812 10.413,-5.254 h 97.155 c 2.897,3.533 6.338,5.254 10.503,5.254 3.713,0 6.972,-1.268 9.507,-3.895 2.717,-2.627 4.075,-5.979 4.437,-9.965 0,-0.906 -0.362,-2.355 -0.905,-4.439 L 430,348.678 c 3.803,0 6.972,-1.269 9.598,-3.896 2.717,-2.627 3.984,-5.797 3.984,-9.511 0,-2.084 -0.634,-4.258 -1.811,-6.523 l 45.273,-78.811 c 3.26,-0.544 5.885,-2.084 7.877,-4.711 2.083,-2.627 3.079,-5.435 3.079,-8.244 z M 258.417,43.033 h 94.529 l -83.302,85.696 H 235.237 L 152.116,43.033 h 87.648 c 2.898,2.6271 5.886,3.8953 9.055,3.8953 3.26,0 6.429,-1.2682 9.688,-3.8953 z M 27.5258,239.972 v -2.99 c 0,-1.811 -0.1811,-3.08 -0.5433,-3.895 l 50.5244,-87.418 3.5313,-1.358 45.7258,48.283 v 84.338 l -45.2731,47.015 c -2.0554,-1.469 -4.4588,-2.374 -6.972,-2.627 L 27.4353,239.972 Z M 239.674,430.026 h -94.167 l 46.178,-48.284 134.641,48.284 h -67.909 c -1.249,-1.271 -2.745,-2.272 -4.396,-2.942 -1.651,-0.67 -3.421,-0.994 -5.202,-0.953 -3.803,0 -6.882,1.268 -9.236,3.895 z M 410.805,136.067 c 0,0.906 0.362,1.812 0.905,2.627 l -15.211,16.487 -4.347,-19.023 h 18.743 z m -26.077,0 5.704,25.637 -61.48,64.317 -71.893,-74.282 15.211,-15.672 h 112.548 z m -21.369,-89.1387 3.893,6.5223 16.117,75.1884 H 279.242 L 360.28,45.6601 Z M 140.708,43.033 h 0.905 l 83.211,85.696 H 134.279 V 47.3812 l 0.815,-1.2682 c 2.263,-0.9059 4.165,-1.9024 5.614,-3.08 z m -6.52,93.034 h 97.608 l 15.665,16.125 -74.881,77.815 -38.392,-40.402 z m -47.0833,0 h 39.6593 v 45.657 L 86.2898,139.147 c 0.5433,-1.449 0.9055,-2.446 0.9055,-3.08 z m 0,200.019 v -0.815 c 0,-2.718 -0.5432,-4.983 -1.7203,-6.976 l 41.3796,-43.029 v 65.224 z m 47.0833,16.94 v -75.188 l 37.124,-38.229 72.255,76.457 -54.055,57.071 -55.233,-20.111 z m 0.906,73.92 -0.906,-1.721 v -64.318 l 49.71,18.208 -46.178,48.737 -2.717,-0.906 z m 216.947,3.08 h -3.894 L 196.936,375.673 248.819,321.32 Z m -103.222,-119.124 -72.436,-76.547 75.877,-77.362 71.893,74.282 z m -81.491,-75.641 -33.14,33.88 v -68.666 z m 84.932,-88.323 -9.96,-10.871 h 20.463 z m 81.943,84.337 57.949,-60.875 31.782,151.282 -0.453,1.359 h -0.453 z m 83.664,96.93 c -1.448,2.083 -2.173,4.439 -2.173,7.066 v 0.362 l -52.335,91.313 -3.079,1.359 -106.3,-112.239 75.424,-79.537 88.463,91.766 z M 126.764,412.724 87.1047,344.058 126.764,358.28 Z m 0,-283.904 H 87.1047 L 126.764,59.8824 Z m 264.03,0 -11.771,-54.8058 31.872,54.8058 z m 29.699,16.94 50.072,87.871 c -0.261,1.13 -0.413,2.283 -0.453,3.442 l 0.905,3.895 -41.469,71.746 -31.329,-148.746 18.743,-19.929 c 0.543,0.543 1.811,1.087 3.531,1.721 z"
     fill="#f2eed8"
     id="path1" />
  <path
     d="m 361.276,1.453 c -7.355,1.28044 -14.022,5.11771 -18.826,10.8353 -4.804,5.7176 -7.436,12.9484 -7.432,20.4176 0.12,6.5607 2.271,12.9225 6.157,18.2083 L 179.642,201.834 146.865,70.6624 c 4.544,-5.6147 7.036,-12.614 7.062,-19.8388 0,-8.4089 -3.339,-16.4734 -9.282,-22.4195 -5.943,-5.946 -14.004,-9.2864 -22.409,-9.2864 -8.405,0 -16.465,3.3404 -22.4081,9.2864 -5.9432,5.9461 -9.282,14.0106 -9.282,22.4195 0.1164,8.2369 3.4326,16.1051 9.2463,21.9385 5.8138,5.8335 13.6678,9.174 21.9008,9.3144 l 36.58,146.4815 v 0.543 l -13.31,160.341 h 0.634 l -0.181,2.446 c -7.841,1.897 -14.825,6.357 -19.844,12.675 -5.019,6.318 -7.786,14.132 -7.863,22.202 0,9.61 3.816,18.827 10.608,25.622 6.792,6.795 16.005,10.613 25.61,10.613 9.606,0 18.818,-3.818 25.61,-10.613 6.793,-6.795 10.608,-16.012 10.608,-25.622 -0.016,-6.273 -1.661,-12.434 -4.771,-17.881 -3.111,-5.447 -7.582,-9.992 -12.975,-13.191 L 185.165,233.812 367.071,63.9589 c 8.265,-0.0937 16.165,-3.4136 22.018,-9.252 5.852,-5.8384 9.193,-13.7331 9.311,-22.001 0.002,-4.6251 -1.007,-9.1948 -2.956,-13.3885 -1.95,-4.1937 -4.793,-7.9098 -8.331,-10.88773 C 383.576,5.45176 379.43,3.28418 374.967,2.07898 370.504,0.873767 365.831,0.660114 361.276,1.453 Z"
     fill="#897a69"
     id="path2" />
</svg>
