<?xml version="1.0" encoding="UTF-8" standalone="no"?>
<!-- Created with Inkscape (http://www.inkscape.org/) -->

<svg
   width="512"
   height="512"
   viewBox="0 0 512 512"
   version="1.1"
   id="svg1"
   xml:space="preserve"
   xmlns="http://www.w3.org/2000/svg"
   xmlns:svg="http://www.w3.org/2000/svg"><defs
     id="defs1"><style
       id="style1">.cls-1{fill:#897a69;}</style></defs><path
     id="path8"
     style="color:#000000;fill:#000000;stroke-linecap:round;stroke-linejoin:round;-inkscape-stroke:none;paint-order:stroke markers fill"
     d="m 30,197.5 a 2.50025,2.50025 0 0 0 -0.308594,0.12695 c -0.479828,0.1075 -0.89262,0.2775 -1.1875,0.49219 a 2.50025,2.50025 0 0 0 -0.433594,0.50391 c -0.0054,0.0124 -0.01087,0.0246 -0.01562,0.0371 A 2.50025,2.50025 0 0 0 27.5,200 v 50 230 a 2.50025,2.50025 0 0 0 2.5,2.5 h 125 a 2.50025,2.50025 0 0 0 2.14453,-1.21289 L 171.41602,457.5 h 167.16796 l 14.27149,23.78711 A 2.50025,2.50025 0 0 0 355,482.5 h 125 a 2.50025,2.50025 0 0 0 2.5,-2.5 V 248.95312 c 0.0683,-0.12303 0.11523,-0.25052 0.11523,-0.38476 v -49.63672 c 0,-0.73713 -1.11454,-1.31918 -2.53906,-1.40039 A 2.50025,2.50025 0 0 0 480,197.5 H 479.76367 430 365.46875 c -1.58031,0 -2.85352,0.63878 -2.85352,1.43164 v 49.63672 c 0,0.79286 1.27321,1.43164 2.85352,1.43164 H 427.5 V 427.5 H 356.41602 L 342.14453,403.71289 A 2.50025,2.50025 0 0 0 340,402.5 H 170 a 2.50025,2.50025 0 0 0 -2.13672,1.20117 L 153.40625,427.5 H 82.5 V 315 250 h 62.64648 C 146.72679,250 148,249.36122 148,248.56836 V 198.93164 C 148,198.13878 146.72679,197.5 145.14648,197.5 H 80 Z" /></svg>
