<?xml version="1.0" encoding="UTF-8" standalone="no"?>
<!-- Created with Inkscape (http://www.inkscape.org/) -->

<svg
   width="512"
   height="512"
   viewBox="0 0 512 512"
   version="1.1"
   id="svg1"
   xml:space="preserve"
   xmlns="http://www.w3.org/2000/svg"
   xmlns:svg="http://www.w3.org/2000/svg"><defs
     id="defs1"><style
       id="style1">.cls-1{fill:#897a69;}</style></defs><path
     id="path8"
     style="color:#000000;fill:#000000;stroke-linecap:round;stroke-linejoin:round;-inkscape-stroke:none;paint-order:stroke markers fill"
     d="m 30,197.5 a 2.50025,2.50025 0 0 0 -2.5,2.5 v 50 230 a 2.50025,2.50025 0 0 0 2.5,2.5 h 125 a 2.50025,2.50025 0 0 0 2.14453,-1.21289 L 171.41602,457.5 h 167.16796 l 14.27149,23.78711 A 2.50025,2.50025 0 0 0 355,482.5 h 125 a 2.50025,2.50025 0 0 0 2.5,-2.5 V 200 a 2.50025,2.50025 0 0 0 -2.5,-2.5 h -50 a 2.50025,2.50025 0 0 0 -2.5,2.5 V 427.5 H 356.41602 L 342.14453,403.71289 A 2.50025,2.50025 0 0 0 340,402.5 H 170 a 2.50025,2.50025 0 0 0 -2.13672,1.20117 L 153.40625,427.5 H 82.5 V 315 200 A 2.50025,2.50025 0 0 0 80,197.5 Z" /></svg>
