<svg xmlns="http://www.w3.org/2000/svg" xml:space="preserve" id="svg1" width="512" height="512" version="1.1"><defs id="defs1"><style id="style1">.cls-1{fill:#897a69}</style></defs><path id="path4" d="M33.404297 92.031245c-1.455916.000186-2.636573 1.48368-2.636719 3.3125V410.66608c.000118 1.83695 1.190007 3.32109 2.652344 3.31055l441.964838-3.54493c1.44257-.0116 2.6086-1.47546 2.61914-3.2871l1.98633-311.777418c.0106-1.83792-1.17306-3.335791-2.63672-3.335937h-94.90624c-1.61341.000186-2.92188 1.48368-2.92188 3.3125v35.820315c0 1.82872 1.30847 3.31228 2.92188 3.3125h55.36133v231.80671H74.003906V134.47656h55.361324c1.58862-.00022 2.87675-1.48378 2.87696-3.3125V95.343745c-.00021-1.82882-1.28834-3.312314-2.87696-3.3125zm60.328125 52.896485c-.477904 0-.937421.19111-1.275391.52929-.337863.33829-.527344.79707-.527344 1.27539v202.02156c0 .47875.189481.93689.527344 1.27539.33797.3385.797487.5293 1.275391.5293h90.095698c.31108 0 .61873-.0805.88868-.23437.27101-.15291.49791-.37384.6582-.64063l10.28516-17.16211h120.49023l10.28711 17.16211c.16029.26679.3872.48772.65821.64063.26993.15395.57759.23437.88867.23437h90.0957c.47769 0 .93599-.1908 1.27343-.5293.3385-.3385.5293-.79664.5293-1.27539V146.73241c0-.47832-.1908-.9371-.5293-1.27539-.33744-.33818-.79574-.52929-1.27343-.52929h-36.03906c-.4777 0-.93494.19111-1.27344.52929-.33744.33829-.52734.79707-.52734 1.27539v164.14266h-51.23633l-10.28516-17.16211c-.16028-.26679-.38719-.48772-.6582-.64063-.27101-.15396-.5776-.23437-.88868-.23437H194.64063c-.30897 0-.61481.0806-.88477.23242-.2689.15185-.49597.37008-.65625.63476l-10.41992 17.16993h-51.10742V146.73241c0-.47832-.18948-.9371-.52735-1.27539-.33797-.33818-.79748-.52929-1.27539-.52929z" style="fill:#000;stroke-width:1.05451"/></svg>